<svg width="64" height="52" viewBox="0 0 64 52" fill="none" xmlns="http://www.w3.org/2000/svg">
<path d="M4.36364 46.2222C3.2 46.2222 2.18182 45.7889 1.30909 44.9222C0.436364 44.0556 0 43.0444 0 41.8889V4.33333C0 3.17778 0.436364 2.16667 1.30909 1.3C2.18182 0.433333 3.2 0 4.36364 0H53.8182C54.9818 0 56 0.433333 56.8727 1.3C57.7455 2.16667 58.1818 3.17778 58.1818 4.33333V21.5944H4.36364V41.8889H33.3818V46.2222H4.36364ZM4.36364 11.5556H53.8182V4.33333H4.36364V11.5556ZM50.9091 52V43.3333H42.1818V39H50.9091V30.3333H55.2727V39H64V43.3333H55.2727V52H50.9091Z" fill="#2E3E80"/>
</svg>
