<svg width="64" height="58" viewBox="0 0 64 58" fill="none" xmlns="http://www.w3.org/2000/svg">
<path d="M29.0909 24.4325L4.36364 8.7V42.05H40.7273V46.4H4.58182C3.3697 46.4 2.30303 45.9529 1.38182 45.0588C0.460606 44.1646 0 43.1617 0 42.05V4.35C0 3.23833 0.436364 2.23542 1.30909 1.34125C2.18182 0.447083 3.2 0 4.36364 0H53.8182C54.9333 0 55.9394 0.447083 56.8364 1.34125C57.7333 2.23542 58.1818 3.23833 58.1818 4.35V21.75H53.8182V8.7L29.0909 24.4325ZM29.0909 19.7925L53.8182 4.35H4.36364L29.0909 19.7925ZM54.6909 58C51.9758 58 49.697 57.0333 47.8545 55.1C46.0121 53.1667 45.0909 50.8467 45.0909 48.14V31.9C45.0909 30.305 45.6606 28.9396 46.8 27.8038C47.9394 26.6679 49.3333 26.1 50.9818 26.1C52.5818 26.1 53.9394 26.6679 55.0546 27.8038C56.1697 28.9396 56.7273 30.305 56.7273 31.9V48.575H52.3636V31.6825C52.3636 31.1508 52.2546 30.6796 52.0364 30.2688C51.8182 29.8579 51.4667 29.6525 50.9818 29.6525C50.497 29.6525 50.1212 29.8579 49.8545 30.2688C49.5879 30.6796 49.4545 31.1508 49.4545 31.6825V48.285C49.4545 49.88 49.9394 51.2817 50.9091 52.49C51.8788 53.6983 53.1394 54.3025 54.6909 54.3025C56.1455 54.3025 57.3333 53.7346 58.2545 52.5988C59.1758 51.4629 59.6364 50.1217 59.6364 48.575V34.2925H64V48.575C64 51.185 63.103 53.4083 61.3091 55.245C59.5152 57.0817 57.3091 58 54.6909 58ZM4.36364 8.7V4.35V42.05V8.7Z" fill="#2E3E80"/>
</svg>
