<svg width="120" height="47" viewBox="0 0 120 47" fill="none" xmlns="http://www.w3.org/2000/svg">
<path d="M0.0548735 21.9386C0.0548735 20.8107 -0.00736724 19.7442 0.129562 18.6653C0.5528 15.2694 2.5694 14.0557 6.02999 13.6634C8.44493 13.3937 10.8599 12.9278 13.2748 12.8788C15.8889 12.8297 17.8557 11.7631 19.7852 10.1571C23.0715 7.39869 26.3827 4.64027 29.9429 2.24964C31.6483 1.09723 33.9139 0.214544 35.9429 0.165505C44.8931 -0.0551684 53.8558 -0.0551684 62.806 0.165505C64.8475 0.214544 67.138 1.0482 68.8185 2.21286C73.4243 5.42489 77.7189 9.07826 82.2625 12.3884C83.582 13.3569 85.2501 14.1047 86.8559 14.4112C95.1837 15.9559 103.536 17.3413 111.889 18.7511C115.225 19.3151 117.603 21.0804 118.412 24.317C119.171 27.3696 119.694 30.5081 119.98 33.6343C120.18 35.8533 118.848 37.0057 116.557 37.2019C116.084 37.2387 115.462 37.2264 114.989 37.2264C112.636 37.2264 109.561 37.5697 109.561 37.5697C109.561 37.5697 109.138 39.1266 108.354 40.6714C106.213 44.8642 101.209 47.1322 96.4161 46.5682C91.8974 46.0411 88.8102 43.5033 87.0924 39.3718C86.831 38.7343 86.6442 38.0601 86.3953 37.3245C68.3455 37.3245 50.2956 37.3245 32.1711 37.3245C31.9595 37.9252 31.7603 38.5014 31.5487 39.0653C29.7935 43.8098 25.6234 46.7031 20.5694 46.6663C15.6898 46.6295 11.4325 43.6872 9.86402 39.0408C9.62751 38.3298 9.26651 37.0915 9.26651 37.0915C9.26651 37.0915 8.13373 37.1896 7.47397 37.1896C4.99679 37.1774 1.74782 37.5697 1.00093 35.8411C0.0673217 33.6834 -0.0198154 29.6622 0.00508088 28.2278C-0.0198154 25.3591 0.0548735 24.7216 0.0548735 21.9386ZM52.9471 33.4749C64.2625 33.4749 75.3164 33.4749 86.3455 33.4749C88.3994 27.3942 91.6982 24.4764 97.026 24.1944C103.81 23.8389 107.694 27.3329 109.3 33.4382C111.74 33.4382 113.993 33.4382 116.756 33.4382C116.121 30.5694 115.561 27.9581 114.939 25.3591C114.516 23.5937 113.308 22.6374 111.478 22.3309C107.607 21.6812 103.76 20.8966 99.8891 20.3081C93.0799 19.266 87.3911 17.2432 80.5322 16.8264C69.7148 16.1766 57.7521 16.6915 46.9097 16.6425C33.4284 16.5812 19.6981 16.0172 6.46567 17.2309C4.68559 17.5374 3.6026 18.1872 3.55281 19.8913C3.42832 23.8879 3.45322 27.8846 3.45322 31.8935C3.45322 33.3278 4.41173 33.4995 5.68144 33.573C6.92626 33.6343 9.07979 33.5853 9.07979 33.5853C9.20427 33.2543 9.39099 32.6536 9.60261 32.1019C10.9844 28.5221 13.2499 25.972 16.9221 24.7461C23.806 22.4535 29.5943 25.7514 32.1711 33.4137C37.8475 33.4137 43.5238 33.4137 49.4367 33.4137C49.4367 29.3434 49.4367 25.4326 49.4367 21.5586C50.6815 21.5586 51.6774 21.5586 52.9595 21.5586C52.9471 25.5675 52.9471 29.466 52.9471 33.4749ZM77.5695 13.3446C73.4118 10.1816 69.4782 7.16576 65.5197 4.19892C65.1089 3.89243 64.5114 3.68402 63.9886 3.67176C59.694 3.63498 55.3994 3.64724 50.8309 3.64724C51.4533 6.93283 52.0384 9.99774 52.6857 13.3446C60.9637 13.3446 69.0674 13.3446 77.5695 13.3446ZM97.9472 43.1355C102.217 43.0742 105.727 39.568 105.69 35.3875C105.665 31.0966 102.005 27.5413 97.6982 27.6271C93.4658 27.7129 89.9306 31.256 89.9306 35.3997C89.943 39.6661 93.5903 43.1968 97.9472 43.1355ZM12.864 35.3261C12.8391 39.6906 16.3371 43.1601 20.7437 43.1355C24.9885 43.1233 28.5238 39.6415 28.5363 35.4487C28.5487 31.1456 24.9387 27.5781 20.6192 27.6271C16.3371 27.6639 12.8889 31.0843 12.864 35.3261ZM48.8143 12.6826C48.3413 10.1326 47.9305 7.47225 47.2832 4.86095C47.1462 4.32152 46.1504 3.64724 45.528 3.62272C42.2417 3.50013 38.9429 3.53691 35.6566 3.5982C34.8973 3.61046 33.9761 3.69628 33.4035 4.12537C29.9304 6.71215 26.2085 9.77706 22.7852 12.4374C31.2126 12.4129 40.1504 12.6826 48.8143 12.6826Z" fill="#201547"/>
<circle cx="20.667" cy="35.3359" r="2" fill="#201547"/>
<circle cx="97.9995" cy="35.3359" r="2" fill="#201547"/>
<path d="M38.666 23.8984V21.4323C38.666 21.3721 38.7332 21.332 38.8004 21.332H45.1983C45.2789 21.332 45.3327 21.3822 45.3327 21.4323V23.8984C45.3327 23.9586 45.2655 23.9987 45.1983 23.9987H38.8004C38.7198 23.9987 38.666 23.9586 38.666 23.8984Z" fill="#201547"/>
<path d="M58.6665 23.8802V21.4505C58.6665 21.3814 58.7334 21.332 58.8271 21.332H65.1725C65.2662 21.332 65.3332 21.3814 65.3332 21.4505V23.8802C65.3332 23.9493 65.2662 23.9987 65.1725 23.9987H58.8271C58.7468 23.9987 58.6665 23.9493 58.6665 23.8802Z" fill="#201547"/>
</svg>
