<svg width="120" height="52" viewBox="0 0 120 52" fill="none" xmlns="http://www.w3.org/2000/svg">
<path d="M119.709 36.6743C118.142 40.7697 115.046 42.0157 110.79 42.3364C109.087 42.4597 107.373 42.5461 105.51 42.6695C103.845 48.1835 100.428 51.6129 94.2229 51.1441C90.0411 50.8234 87.0188 47.8998 85.4275 42.7558H40.5871C39.0451 48.0972 35.7391 51.4402 29.7439 51.1688C25.2537 50.9714 22.2191 48.0478 20.3934 42.2377C15.6072 41.7936 10.7345 41.3372 5.86191 40.8808C5.01074 40.8068 4.1349 40.8438 3.30841 40.6711C0.730234 40.1036 0.24914 39.5362 0.0764389 37.1677C-0.342977 31.3699 1.10031 20.1197 1.10031 20.1197C2.35855 15.6295 3.22206 11.608 4.46797 7.30286C4.97373 5.57585 6.31833 1.22133 6.63906 0.43184C6.67607 0.34549 6.73775 0.296148 6.83643 0.271476C7.12015 0.222133 7.73694 0.123448 8.08234 0.0741045C8.25504 0.049433 8.42774 0.0370988 8.60044 0.0370988C11.4747 0.0864418 14.3489 0.0494348 17.2108 0.0494348C38.379 0.0494348 59.5471 0.0987767 80.7153 9.06764e-05C84.6504 -0.0122451 87.7343 1.23367 90.5222 3.9722C96.0239 9.36293 101.649 14.6303 107.348 19.8236C109.05 21.3779 111.086 22.6115 113.109 23.7464C116.02 25.3994 118.426 27.4348 119.709 30.6051C120.19 32.7638 119.992 34.4045 119.709 36.6743ZM115.12 30.309C115.181 30.1363 115.514 30.309 114.614 29.7909C113.886 29.2482 113.208 28.6067 112.43 28.1749C107.336 25.3747 103.031 21.6 98.9105 17.5539C95.2468 13.9518 91.398 10.5472 87.759 6.93278C85.6866 4.88505 83.4168 3.99687 80.4685 4.00921C57.5981 4.08322 34.7152 4.05855 11.8447 4.05855C10.9936 4.05855 10.1547 4.05855 8.99519 4.05855C7.5149 9.63431 6.21964 14.803 5.08475 20.2061C4.39395 23.4874 4.0979 26.7563 4.0979 30.3214C40.9448 30.309 78.5195 30.309 115.12 30.309ZM38.4283 34.4785C39.7852 37.3651 41.1545 38.8577 41.4382 38.7467C54.1934 38.5123 69.5761 38.537 82.3312 38.537C86.1677 38.537 86.291 38.4383 87.3642 34.4909C71.1057 34.4785 54.8472 34.4785 38.4283 34.4785ZM30.6568 47.1597C33.9011 47.098 36.5656 44.3718 36.5409 41.1645C36.5039 37.8462 33.679 35.1693 30.336 35.2803C27.1041 35.3914 24.4642 38.1916 24.5752 41.3865C24.6863 44.6308 27.4125 47.2213 30.6568 47.1597ZM95.4565 35.268C92.1998 35.231 89.486 37.8462 89.3996 41.0781C89.3133 44.2854 91.9531 47.0486 95.1974 47.1473C98.5281 47.246 101.365 44.5198 101.378 41.2138C101.39 38.0065 98.7008 35.305 95.4565 35.268ZM22.7742 34.4292C16.9394 34.4292 9.80935 34.1825 4.22125 34.1455L4.08556 36.6126C8.35373 37.0197 12.955 37.4144 17.1861 37.8708C18.5801 38.0189 20.1961 38.463 20.1961 38.463C20.1961 38.463 21.6147 36.8593 22.7742 34.4292ZM103.228 34.5649C104.708 36.6126 105.189 39.0798 105.189 39.0798C105.189 39.0798 109.667 38.833 113.109 38.0682C114.848 37.6858 115.749 36.5879 115.477 34.5772C111.407 34.5649 107.41 34.5649 103.228 34.5649Z" fill="#201547"/>
<path d="M42.5862 24.3748C32.3968 24.3748 22.2198 24.3748 12.0305 24.3748C8.44081 24.3748 7.84869 23.61 8.69986 20.2176C9.30431 17.8122 9.99511 15.419 10.4885 12.9889C10.9203 10.8671 12.0182 10.0777 14.2016 10.09C27.5736 10.164 40.9455 10.127 54.3175 10.127C60.8431 10.127 67.381 10.1147 73.9066 10.127C76.5958 10.1393 77.1509 10.7191 77.1756 13.433C77.1879 15.9988 77.1879 18.5646 77.1756 21.1305C77.1509 23.795 76.5835 24.3748 73.8326 24.3748C63.4213 24.3871 52.9975 24.3748 42.5862 24.3748ZM52.7878 14.3952C45.9908 14.3952 39.3665 14.3952 32.6929 14.3952C32.6929 16.3936 32.6929 18.2316 32.6929 20.119C39.4652 20.119 46.0772 20.119 52.7878 20.119C52.7878 18.1699 52.7878 16.4059 52.7878 14.3952ZM72.9691 14.3088C67.5291 14.3088 62.348 14.3088 57.0437 14.3088C57.0437 16.2949 57.0437 18.1946 57.0437 20.1436C62.4221 20.1436 67.6524 20.1436 72.9691 20.1436C72.9691 18.1699 72.9691 16.3319 72.9691 14.3088ZM28.4371 14.2225C25.3161 14.2225 22.3185 14.2225 19.3209 14.2225C13.7822 14.2225 13.7822 14.2225 13.1407 19.8352C13.1284 19.9092 13.1654 19.9833 13.2024 20.1313C18.2477 20.1313 23.3054 20.1313 28.4494 20.1313C28.4371 18.1329 28.4371 16.3072 28.4371 14.2225Z" fill="#201547"/>
<path d="M90.1646 24.377C88.0675 24.377 85.9828 24.377 83.8857 24.377C82.0847 24.3646 81.1965 23.5258 81.2335 21.6508C81.3075 18.5545 81.1719 15.4459 81.3692 12.3619C81.4186 11.6095 82.3314 10.4129 83.0099 10.2895C85.1316 9.90712 87.1917 9.88245 89.0051 11.7328C91.867 14.6687 95.0742 17.2716 97.9855 20.1581C98.6763 20.8489 99.2561 22.2182 99.0464 23.057C98.8983 23.6738 97.381 24.2289 96.4312 24.3153C94.3588 24.5003 92.2617 24.377 90.1646 24.377ZM92.1507 20.1951C89.7329 17.9994 87.7838 16.223 85.4647 14.1136C85.4647 16.4944 85.4647 18.3078 85.4647 20.1951C87.6111 20.1951 89.5848 20.1951 92.1507 20.1951Z" fill="#201547"/>
<path d="M95.3949 43.9627C96.9142 43.9627 98.1458 42.7311 98.1458 41.2118C98.1458 39.6925 96.9142 38.4609 95.3949 38.4609C93.8757 38.4609 92.644 39.6925 92.644 41.2118C92.644 42.7311 93.8757 43.9627 95.3949 43.9627Z" fill="#201547"/>
<path d="M30.5458 43.9627C32.0651 43.9627 33.2967 42.7311 33.2967 41.2118C33.2967 39.6925 32.0651 38.4609 30.5458 38.4609C29.0265 38.4609 27.7949 39.6925 27.7949 41.2118C27.7949 42.7311 29.0265 43.9627 30.5458 43.9627Z" fill="#201547"/>
</svg>
