<svg width="120" height="78" viewBox="0 0 120 78" fill="none" xmlns="http://www.w3.org/2000/svg">
<path d="M0.0251114 54.4535C0.0251114 54.292 0.100446 54.1421 0.226003 54.0268C1.90847 52.4584 2.03403 50.4864 2.02147 48.3644C1.94614 37.0283 1.9838 25.7036 1.9838 14.3674C1.9838 8.47444 5.05996 5.62597 11.4257 5.62597C25.7141 5.61444 40.0025 5.68363 54.291 5.55678C56.2748 5.53372 58.5976 5.06089 60.1796 4.03452C66.244 0.125096 72.8232 -0.705225 80.6705 0.528724C84.0857 1.07074 87.5762 0.932352 90.9913 0.413401C102.342 -1.29337 109.976 4.35743 110.013 13.86C110.026 15.636 110.076 17.5157 109.536 19.1879C108.142 23.5471 104.614 25.6113 99.4539 25.9458C101.965 30.0858 104.338 34.0991 106.849 38.0316C107.125 38.4583 108.142 38.6543 108.833 38.6774C115.036 38.8503 117.999 41.5835 118.036 47.2228C118.049 49.5292 117.584 51.9048 119.581 53.8884C120.02 54.3151 119.97 55.2492 119.97 55.9527C120.008 59.1817 120.008 62.4107 119.982 65.6282C119.957 68.0038 117.823 69.6068 115.249 69.8605C114.081 69.9759 112.951 69.9759 112.386 69.9759C112.386 69.9759 111.306 71.4059 110.616 72.4899C108.883 75.223 105.983 77.1835 102.53 77.2527C97.8719 77.345 94.3437 75.4652 92.6612 71.6019C92.4729 71.1521 91.9079 70.0451 91.9079 70.0451C91.9079 70.0451 90.6147 69.9182 90.0999 69.9182C74.6438 69.9759 59.1877 69.9643 43.7316 69.9297C43.0536 69.9297 41.9738 69.9643 41.9738 69.9643C41.9738 69.9643 41.4716 70.91 41.2079 71.5212C39.6384 75.1423 35.947 77.4141 31.9167 77.2758C27.6351 77.1258 24.4334 75.2576 22.8263 71.5673C22.5626 70.9561 22.186 69.9759 22.186 69.9759C22.186 69.9759 20.8551 69.9067 20.0766 69.9182C15.2301 69.9874 10.3961 69.8836 5.54963 69.9759C3.71649 70.0105 2.15958 69.6645 0.954235 68.6266C0.326449 68.0961 0 67.335 0 66.5508C0.0251114 62.2954 0.0125557 55.9411 0.0251114 54.4535ZM113.981 51.4782C113.981 50.6017 113.981 49.829 113.981 49.0564C113.993 42.8751 113.479 42.4023 106.849 42.4023C102.003 42.4023 97.1687 42.4715 92.3222 42.3792C87.5008 42.287 84.2364 39.4616 84.0229 35.2408C83.8973 32.7383 83.9099 30.2127 84.0229 27.7102C84.1736 24.4696 86.4838 22.3938 89.9994 22.2555C92.2595 22.1632 94.5321 22.1286 96.7921 22.2439C102.781 22.5438 106.447 21.3675 106.046 13.6293C105.732 7.62105 101.865 3.86154 95.2854 3.85001C88.4174 3.82694 81.5369 4.02299 74.6689 3.78082C70.4125 3.6309 66.6709 4.38049 63.2809 6.7446C60.2298 8.86653 56.7393 9.45468 52.9224 9.42008C38.86 9.31629 24.8101 9.36242 10.7477 9.38548C6.98098 9.37395 5.4743 11.2883 6.41597 14.6672C29.5562 14.6672 52.7089 14.6672 75.824 14.6672C76.3639 9.58153 78.0338 7.64412 82.2149 7.51726C86.1197 7.39041 90.0245 7.39041 93.9294 7.52879C97.6584 7.65565 100.006 9.96209 99.931 13.145C99.8557 16.2472 97.3069 18.4614 93.6155 18.4844C88.4551 18.5305 83.3072 18.496 78.1468 18.496C77.406 18.496 76.6778 18.496 76.1128 18.496C76.1128 29.7168 76.1128 40.5802 76.1128 51.4782C88.8066 51.4782 101.262 51.4782 113.981 51.4782ZM6.1523 51.4666C22.8514 51.4666 39.2994 51.4666 55.9734 51.4666C55.9734 40.4649 55.9734 29.59 55.9734 18.6574C39.5003 18.6574 22.8389 18.6574 6.1523 18.6574C6.1523 29.6476 6.1523 40.4649 6.1523 51.4666ZM92.1214 66.2048C92.4227 65.4552 92.6236 64.8325 92.9375 64.2559C94.7957 60.9115 97.7212 58.9972 101.865 58.9395C105.995 58.8819 109.034 60.6809 110.955 64.0022C111.62 65.1554 112.437 66.1933 112.437 66.1933C112.437 66.1933 113.993 66.1126 115.852 65.9396C115.852 62.4453 115.852 58.951 115.852 55.3414C102.543 55.3414 89.3716 55.3414 76.2132 55.3414C74.8572 59.6314 73.3003 60.7155 68.5166 60.7155C66.2566 60.7155 63.984 60.7616 61.7239 60.6809C59.1124 60.5886 57.116 59.3316 56.4756 57.0713C55.9985 55.376 55.1196 55.18 53.5502 55.1915C37.9308 55.2261 22.3115 55.2146 6.6922 55.2146C5.87608 55.2146 5.05996 55.2953 4.18106 55.3414C4.18106 59.0779 4.18106 62.5606 4.18106 66.2625C9.60513 66.2625 14.8911 66.2048 20.1896 66.2971C21.1062 66.3086 22.2236 66.3317 22.2236 66.3317C22.2236 66.3317 22.6505 65.0977 22.864 64.6018C24.3832 61.0153 28.0746 58.8357 32.218 58.951C36.5497 59.0664 39.5505 61.073 41.2958 64.6941C41.5343 65.2015 41.7352 65.7205 41.9487 66.2163C58.7106 66.2048 75.3469 66.2048 92.1214 66.2048ZM60.0289 37.0398C60.0289 43.1519 59.9536 49.1602 60.1294 55.1569C60.1545 55.8258 61.523 56.9214 62.3768 57.0136C64.7624 57.2673 67.2234 57.2673 69.6089 57.0136C70.4753 56.9214 71.8815 55.8489 71.8941 55.1915C72.0699 49.1948 71.9945 43.1865 71.9945 37.0398C68.0018 37.0398 64.21 37.0398 60.0289 37.0398ZM72.0071 33.0727C72.0071 28.7712 72.095 24.5619 71.9066 20.3642C71.8815 19.7184 70.6008 18.6574 69.8098 18.5882C67.261 18.3576 64.6494 18.3806 62.1006 18.5882C61.3598 18.6459 60.1545 19.6376 60.1294 20.2258C59.9536 24.4927 60.0415 28.7712 60.0415 33.0727C64.1472 33.0727 67.9516 33.0727 72.0071 33.0727ZM102.593 38.6889C100.496 35.2292 98.575 32.0694 96.6665 28.898C94.6199 25.5075 94.4693 25.4614 90.3133 25.8305C88.8066 25.9688 88.0533 26.6377 88.0658 28.0331C88.0784 30.3972 88.0156 32.7613 88.1035 35.1254C88.1788 37.1436 89.5851 38.5736 91.7321 38.6543C95.2101 38.7696 98.7005 38.6889 102.593 38.6889ZM32.0924 62.6068C28.8154 62.5606 26.1285 64.9478 26.0657 67.9808C26.0029 71.0022 28.5768 73.4932 31.8413 73.5739C35.2188 73.6546 37.9811 71.1983 37.9936 68.0961C38.0062 65.0977 35.382 62.6529 32.0924 62.6068ZM107.942 68.0384C107.929 64.9939 105.317 62.6068 102.003 62.6068C98.7257 62.6068 96.089 65.017 96.0639 68.05C96.0387 71.1752 98.7508 73.6546 102.116 73.5854C105.405 73.5163 107.954 71.083 107.942 68.0384ZM80.3441 14.8402C84.7135 14.8402 89.1331 14.9325 93.5401 14.7595C94.3814 14.7249 95.7374 13.7447 95.8755 13.0412C96.1517 11.6804 94.9213 11.1499 93.4648 11.1614C90.0497 11.1845 86.6219 11.1614 83.2068 11.173C80.2939 11.173 79.8042 11.7842 80.3441 14.8402Z" fill="#201547"/>
<path d="M38.0318 40.4883C35.9978 40.4883 33.9763 40.546 31.9423 40.4768C28.7155 40.3615 26.3926 38.5163 26.1666 35.5987C25.9532 32.7502 25.9657 29.8671 26.1792 27.0071C26.3926 24.274 28.6025 22.3712 31.5907 22.2905C35.8722 22.1636 40.1788 22.1636 44.4603 22.2905C47.5239 22.3827 49.6961 24.3201 49.9346 27.2262C50.1606 29.9363 50.1606 32.681 49.9472 35.3911C49.6961 38.5509 47.3607 40.3961 43.8702 40.4883C41.9241 40.546 39.9779 40.4999 38.0318 40.4883C38.0318 40.4999 38.0318 40.4999 38.0318 40.4883ZM38.1322 36.9018C39.9277 36.9018 41.7106 36.9133 43.5061 36.9018C45.063 36.8787 46.0047 36.2445 46.0047 34.6991C45.9921 32.485 45.9921 30.2708 46.0047 28.045C46.0172 26.5113 45.1132 25.8424 43.5312 25.8309C39.8775 25.8193 36.2112 25.8309 32.5575 25.8309C30.8248 25.8309 30.0087 26.6381 30.0338 28.2411C30.0589 30.3169 30.0715 32.3927 30.0338 34.4685C29.9961 36.2099 30.9755 36.9249 32.771 36.9133C34.5413 36.9018 36.3368 36.9133 38.1322 36.9018Z" fill="#201547"/>
</svg>
