<svg width="120" height="56" viewBox="0 0 120 56" fill="none" xmlns="http://www.w3.org/2000/svg">
<path d="M0.00541105 11.3002C0.00541105 10.3018 0.236733 9.32783 0.662854 8.42689C1.35682 6.97808 2.00209 5.50492 2.95173 4.25091C5.338 1.09762 8.82001 0.0140583 12.6551 0.0140583C41.6434 0.00188346 70.644 -0.0102914 99.6323 0.0140583C105.841 0.0262332 110.334 2.86297 112.952 8.54864C113.012 8.69473 113.086 8.82866 113.159 8.96258C120.354 24.5221 120.354 24.5221 119.77 41.7251C119.636 45.6941 117.554 47.8126 113.439 47.9465C110.711 48.0439 107.984 48.0195 105.257 47.9465C104.734 47.9343 103.906 47.9465 103.906 47.9465C103.906 47.9465 103.638 48.9205 103.346 49.5414C101.471 53.5956 98.2809 55.7141 93.9223 55.921C89.8437 56.1158 86.2156 53.5835 84.5477 49.4562C84.3285 48.9083 84.0363 47.983 84.0363 47.983C84.0363 47.983 82.9649 47.9587 82.3562 47.9587C67.3933 47.9952 52.4304 47.9952 37.4675 47.9465C36.8831 47.9465 36.0795 47.983 36.0795 47.983C35.8482 48.6039 35.4586 49.4318 35.1299 50.0284C33.4498 53.0234 29.919 56.0671 25.9013 55.9088C21.5427 55.7384 18.2434 53.693 16.7093 49.517C16.4536 48.8231 16.0154 47.983 16.0154 47.983C16.0154 47.983 14.9196 47.9221 14.3352 47.9465C12.3142 48.0317 10.281 47.9465 8.25997 47.983C1.05245 48.1413 0.0906351 48.2265 0.00541105 44.1845C-0.00676381 43.32 0.00541105 42.833 0.00541105 42.5652V11.3002ZM106.475 6.56413C104.271 4.43353 102.043 4.08046 99.6688 4.08046C70.6805 4.08046 41.68 4.08046 12.6916 4.09264C7.17641 4.09264 4.13269 7.07548 4.03529 12.5663C3.96224 16.304 4.01094 20.0417 4.01094 23.7916C4.01094 29.4042 4.01094 35.0168 4.01094 40.6294C4.01094 42.48 4.55881 43.9044 6.72593 43.9288C9.83052 43.9531 12.9473 43.941 16.1128 43.941C17.6224 38.9736 20.8488 36.0517 25.9622 36.0517C31.0878 36.0517 34.2533 39.0588 35.7873 43.8557C51.9069 43.8557 67.9411 43.8557 83.9876 43.8557C85.4729 39.1441 88.5167 36.2221 93.4353 36.0638C98.7801 35.8934 102.067 38.9371 103.699 43.9531C107.071 43.9531 110.346 43.9288 113.609 43.9653C115.107 43.9897 115.74 43.2835 115.74 41.8469C115.74 37.0135 115.788 32.18 115.679 27.3466C115.667 26.7988 114.827 25.8248 114.315 25.7761C106.243 25.1186 98.1713 24.1812 90.075 24.0838C70.8996 23.8403 51.7242 24.0107 32.561 24.0107C27.338 24.0107 22.115 23.9864 16.8919 24.0229C14.8466 24.0351 13.8969 23.2072 13.97 21.0766C14.0674 18.045 13.9943 15.0013 13.9943 11.9576C13.9943 8.31731 14.2987 8.02512 18.0242 8.02512C42.5809 8.02512 67.1254 8.09817 91.6821 7.96424C96.4668 7.91554 101.239 7.07548 106.475 6.56413ZM95.9799 20.2C102.092 20.6991 108.082 21.174 114.51 21.6975C112.769 17.8502 111.284 14.4534 109.664 11.1054C109.445 10.6549 108.581 10.2288 108.057 10.2775C104.052 10.7036 100.071 11.2515 95.9677 11.775C95.9799 14.563 95.9799 17.1928 95.9799 20.2ZM73.9921 19.8834C80.0186 19.8834 85.8017 19.8834 91.6213 19.8834C91.6213 17.2293 91.6213 14.7213 91.6213 12.1889C85.6556 12.1889 79.8725 12.1889 73.9921 12.1889C73.9921 14.7943 73.9921 17.2537 73.9921 19.8834ZM51.8216 12.2498C46.3916 12.2498 41.2295 12.2498 36.1161 12.2498C36.1161 14.9039 36.1161 17.3632 36.1161 19.8713C41.4243 19.8713 46.5864 19.8713 51.8216 19.8713C51.8216 17.2658 51.8216 14.8065 51.8216 12.2498ZM31.7209 19.9443C31.7209 17.205 31.7209 14.6969 31.7209 12.2133C27.0701 12.2133 22.6141 12.2133 18.1338 12.2133C18.1338 14.8796 18.1338 17.3876 18.1338 19.9443C22.7359 19.9443 27.1554 19.9443 31.7209 19.9443ZM69.6456 19.9443C69.6456 17.1928 69.6456 14.6848 69.6456 12.2254C64.9948 12.2254 60.5388 12.2254 56.095 12.2254C56.095 14.9039 56.095 17.3998 56.095 19.9443C60.6849 19.9443 65.0922 19.9443 69.6456 19.9443ZM25.9379 40.045C22.6994 40.045 20.0209 42.7478 20.0331 45.9863C20.0452 49.2127 22.7602 51.9155 25.9744 51.9033C29.1886 51.8911 31.8914 49.1761 31.8792 45.9498C31.8792 42.7113 29.1764 40.0328 25.9379 40.045ZM99.7419 46.0229C99.7662 42.7722 97.1121 40.0694 93.8736 40.045C90.6229 40.0207 87.9201 42.6748 87.8958 45.9133C87.8714 49.1518 90.5499 51.879 93.764 51.9033C96.9904 51.9155 99.7175 49.237 99.7419 46.0229Z" fill="#201547"/>
<path d="M93.8213 49.0868C95.3155 49.0868 96.5268 47.8755 96.5268 46.3813C96.5268 44.8871 95.3155 43.6758 93.8213 43.6758C92.327 43.6758 91.1157 44.8871 91.1157 46.3813C91.1157 47.8755 92.327 49.0868 93.8213 49.0868Z" fill="#201547"/>
<path d="M26.1845 49.0868C27.6787 49.0868 28.8901 47.8755 28.8901 46.3813C28.8901 44.8871 27.6787 43.6758 26.1845 43.6758C24.6903 43.6758 23.479 44.8871 23.479 46.3813C23.479 47.8755 24.6903 49.0868 26.1845 49.0868Z" fill="#201547"/>
</svg>
