<svg width="120" height="80" viewBox="0 0 120 80" fill="none" xmlns="http://www.w3.org/2000/svg">
<path d="M81.611 60.6854C75.1477 60.6854 68.2271 60.6601 61.3066 60.7233C60.7733 60.7233 59.9733 62.7728 58.4114 62.5577C55.4527 62.1782 55.4273 64.4301 54.8432 66.3277C52.4814 74.0196 45.0275 79.333 37.1165 79.0926C28.6976 78.8396 21.5104 73.0581 19.72 64.9488C19.3898 63.418 19.3644 62.2415 17.2819 62.6969C15.1232 62.5704 14.6026 60.989 14.7042 59.0407C14.9836 53.5375 15.2375 48.0343 15.3899 42.5311C15.428 41.4179 15.2248 40.3046 14.8058 39.2798C11.9614 32.2965 8.96462 25.3763 6.14562 18.3803C5.49801 16.7736 4.69802 16.1537 2.95837 16.2043C2.0568 16.2297 0.837768 15.7236 0.304443 15.0278C-0.571733 13.8892 0.545709 12.4217 2.34885 12.409C10.0948 12.3584 17.828 12.3331 25.5739 12.4596C26.3612 12.4723 27.5548 12.8392 27.9103 14.0663C28.177 15.3947 27.5548 16.255 25.8024 16.2297C25.4723 16.2297 25.0405 16.3435 24.4564 16.4068C25.4977 18.6586 26.704 19.8225 29.4087 19.7846C41.7895 19.6201 54.1829 19.6834 66.5764 19.7213C70.7922 19.734 73.3826 22.454 72.9763 26.2366C72.9255 26.7174 72.4302 29.703 70.4239 30.2849C70.4239 30.2849 71.3382 33.6881 70.5509 36.6864C69.7255 39.8112 69.2811 43.0498 68.7732 46.2505C68.5319 47.756 69.5224 48.2494 70.8557 48.2494C74.3604 48.2494 77.8524 48.2494 81.6745 48.2494C82.5126 43.7203 83.4396 39.2545 84.1253 34.7508C84.3793 33.1441 84.2777 31.4994 83.8967 29.9181C82.6523 24.8071 81.5349 19.6201 79.7317 14.6862C78.8047 12.1434 76.7984 9.28423 74.754 7.91792C73.8524 7.32332 71.9731 7.6143 70.5255 7.589C69.0398 7.57635 67.5541 7.43718 67.6303 5.52688C67.6938 3.79369 69.116 3.70513 70.5128 3.66718C74.1953 3.57862 78.0302 3.02197 79.5032 7.42453C81.0269 6.36185 82.2333 5.32446 83.6047 4.60335C86.1189 3.275 88.722 2.09845 91.2871 0.88395C95.96 -1.32998 98.6139 0.668883 98.3346 6.27329C98.2711 7.52574 98.2584 8.76554 98.3346 10.018C98.5504 13.1808 98.4489 16.1031 94.4489 17.2038C96.1124 19.7213 97.6489 21.8847 99.0203 24.1492C102.715 30.247 106.55 36.2689 109.89 42.5438C111.249 45.0993 112.176 47.6422 114.537 49.6537C118.042 52.6646 119.82 56.8268 119.998 61.4824C120.036 62.4059 119.591 63.8861 118.944 64.1771C117.42 64.8729 117.166 66.0241 116.785 67.3778C114.842 74.2852 108.226 79.1685 101.103 79.0673C93.8394 78.9661 87.6046 74.0828 85.5856 67.1121C85.2935 66.1127 84.7221 64.8096 83.6936 64.3921C81.2555 63.4813 81.865 62.1402 81.611 60.6854ZM19.6692 46.3644C20.0121 46.0608 20.3168 45.8331 20.5708 45.5674C33.5864 32.3597 54.2337 37.3948 59.5543 55.1442C59.9987 56.6117 60.659 56.8142 61.9415 56.8142C68.3795 56.7762 74.8175 56.7383 81.2555 56.8268C82.792 56.8521 83.5158 56.3334 84.1634 54.9545C86.9062 49.1097 91.5791 45.5168 97.9282 44.4668C100.658 44.0113 103.528 44.3908 106.296 44.3908C106.144 41.9112 104.849 40.9118 102.309 41.2407C100.785 41.4305 99.1346 41.5697 97.687 41.1775C96.341 40.8106 94.4616 40.1274 94.0299 38.9003C93.2172 36.5725 93.2172 33.4857 93.8902 30.3102C94.1823 28.9313 95.541 28.1975 96.4298 27.4764C94.6394 24.7058 92.8109 21.9353 91.0585 19.1141C89.23 16.1664 89.4204 15.7236 92.3918 14.0284C93.1918 13.5729 94.2458 12.7127 94.322 11.9536C94.5632 9.39809 94.4108 6.81729 94.4108 3.79369C92.1125 4.86903 90.1442 5.7799 88.2014 6.71608C83.5031 8.94266 82.8301 10.3596 84.0237 15.5212C84.1507 16.0778 84.3158 16.6218 84.4681 17.1658C85.7126 21.6949 86.9697 26.224 88.1887 30.7657C88.3919 31.5247 88.5697 32.385 88.43 33.1314C87.5538 38.2424 86.6014 43.3408 85.6618 48.4518C85.2173 50.8682 83.7824 52.1586 81.2936 52.1839C77.7127 52.2092 74.1191 52.2724 70.5382 52.1586C66.4875 52.0321 64.3161 49.3121 64.9891 45.327C65.5986 41.7341 66.2716 38.1412 66.9319 34.561C67.4145 31.9169 67.097 31.4615 64.5193 31.4615C53.4337 31.4488 42.3609 31.3982 31.2754 31.4741C23.339 31.5247 18.0311 38.3437 19.6692 46.3644ZM18.7676 58.7498C31.3516 58.7498 43.7577 58.7498 56.1638 58.7498C55.2877 49.3121 47.2243 42.1263 37.5991 42.0631C27.8976 41.9872 19.6565 49.2235 18.7676 58.7498ZM115.82 60.8625C115.477 53.6388 108.531 47.8572 100.608 48.047C93.395 48.2241 86.6395 54.3852 86.7157 60.8625C96.4172 60.8625 106.119 60.8625 115.82 60.8625ZM47.364 23.6179C45.4085 23.6179 43.4529 23.6179 41.4974 23.6179C36.9388 23.6179 32.3801 23.5293 27.8215 23.7064C27.6437 23.7191 27.4532 23.7823 27.2754 23.8835C26.1707 24.5161 26.0564 26.0848 27.0215 26.9071C27.2627 27.1095 27.504 27.312 27.758 27.5017C27.9611 27.6535 28.3929 27.5397 28.723 27.5397C41.1038 27.5397 53.4718 27.5397 65.8526 27.5397C67.3764 27.5397 69.0525 27.527 69.0144 25.4649C68.9763 23.504 67.3383 23.6179 65.9288 23.6179C59.732 23.6179 53.548 23.6179 47.364 23.6179ZM23.631 63.0132C23.6691 69.6297 31.0087 75.7148 38.1959 75.1835C45.3577 74.6521 51.948 68.4658 51.1608 62.9879C47.2116 62.6083 45.9545 63.0132 46.7418 62.9373C45.5101 67.4663 41.3577 70.7429 37.4848 70.7429C33.4976 70.7429 29.4976 67.8838 28.3675 62.9373C28.3675 62.9373 25.8151 62.6336 23.631 63.0132ZM17.0915 34.4598C18.9327 32.6886 20.7232 30.9554 22.6406 29.0957C21.0787 26.1354 20.647 24.6426 22.8819 21.2015C22.1581 20.2527 21.4724 19.2406 20.6597 18.3424C19.9867 17.596 19.1994 16.4574 18.3994 16.3941C15.5931 16.1537 12.7614 16.3056 9.52334 16.3056C12.2154 22.7955 14.7677 28.906 17.0915 34.4598ZM113.077 65.1638C111.058 65.1132 109.293 65.1132 109.293 65.1132C108.519 69.0224 104.785 71.8183 101.166 71.793C97.6616 71.7677 94.3854 68.3772 92.9632 65.1132C92.9632 65.1132 90.9569 64.8982 89.2681 64.8982C90.6014 70.958 95.6426 75.3732 101.471 75.2088C107.3 75.0443 112.341 70.7556 113.077 65.1638ZM31.9611 62.9373C33.3706 65.7584 35.3642 67.0741 37.8149 66.8338C40.1895 66.5934 42.0307 65.5307 42.9704 62.9373C39.2244 62.9373 35.7324 62.9373 31.9611 62.9373ZM97.5346 31.7398C95.8076 32.7139 95.6934 36.2436 96.5441 37.6225C98.3346 37.6225 100.976 37.243 102.665 37.243C101.204 33.2326 99.7314 31.6513 97.5346 31.7398ZM105.598 65.1132C102.563 65.1132 99.833 65.1132 96.9632 65.1132C99.2235 68.782 102.944 68.8326 105.598 65.1132Z" fill="#201547"/>
</svg>
