<svg width="64" height="47" viewBox="0 0 64 47" fill="none" xmlns="http://www.w3.org/2000/svg">
<path d="M36.3636 27.9062C33.9394 27.9062 31.8788 27.0495 30.1818 25.3359C28.4848 23.6224 27.6364 21.5417 27.6364 19.0938C27.6364 16.6458 28.4848 14.5651 30.1818 12.8516C31.8788 11.138 33.9394 10.2812 36.3636 10.2812C38.7879 10.2812 40.8485 11.138 42.5455 12.8516C44.2424 14.5651 45.0909 16.6458 45.0909 19.0938C45.0909 21.5417 44.2424 23.6224 42.5455 25.3359C40.8485 27.0495 38.7879 27.9062 36.3636 27.9062ZM13.0909 38.1875C11.8909 38.1875 10.8638 37.7559 10.0095 36.8928C9.15467 36.0302 8.72727 34.993 8.72727 33.7812V4.40625C8.72727 3.19453 9.15467 2.1571 10.0095 1.29397C10.8638 0.431322 11.8909 0 13.0909 0H59.6364C60.8364 0 61.8638 0.431322 62.7185 1.29397C63.5728 2.1571 64 3.19453 64 4.40625V33.7812C64 34.993 63.5728 36.0302 62.7185 36.8928C61.8638 37.7559 60.8364 38.1875 59.6364 38.1875H13.0909ZM20.3636 33.7812H52.3636C52.3636 31.725 53.0667 29.987 54.4727 28.5672C55.8788 27.1474 57.6 26.4375 59.6364 26.4375V11.75C57.6 11.75 55.8788 11.0401 54.4727 9.62031C53.0667 8.20052 52.3636 6.4625 52.3636 4.40625H20.3636C20.3636 6.4625 19.6606 8.20052 18.2545 9.62031C16.8485 11.0401 15.1273 11.75 13.0909 11.75V26.4375C15.1273 26.4375 16.8485 27.1474 18.2545 28.5672C19.6606 29.987 20.3636 31.725 20.3636 33.7812ZM55.2727 47H4.36364C3.16364 47 2.13649 46.5684 1.28218 45.7053C0.427394 44.8427 0 43.8055 0 42.5938V8.8125H4.36364V42.5938H55.2727V47Z" fill="#2E3E80"/>
</svg>
