<svg width="48" height="42" viewBox="0 0 48 42" fill="none" xmlns="http://www.w3.org/2000/svg">
<path d="M24 1.75C24.4855 1.75 24.9636 1.87649 25.3887 2.11816C25.7606 2.32967 26.0817 2.6235 26.3271 2.97852L26.4277 3.13477L45.8711 35.9199C46.1172 36.3549 46.2485 36.8481 46.25 37.3516C46.2514 37.8595 46.121 38.3585 45.873 38.7979C45.6252 39.237 45.269 39.6005 44.8418 39.8545C44.4145 40.1084 43.9297 40.2445 43.4365 40.25H4.56348C4.07026 40.2445 3.58546 40.1084 3.1582 39.8545C2.73097 39.6005 2.37477 39.237 2.12695 38.7979C1.87901 38.3585 1.74859 37.8595 1.75 37.3516C1.75146 36.8483 1.88196 36.3548 2.12793 35.9199L21.5723 3.13477C21.8277 2.70949 22.1862 2.35994 22.6113 2.11816C23.0364 1.87649 23.5145 1.75 24 1.75Z" stroke="#201547" stroke-width="3.5" stroke-linecap="round" stroke-linejoin="round"/>
<circle cx="24" cy="32" r="2" fill="#201547"/>
<path d="M22 12H26L25 27H23L22 12Z" fill="#201547"/>
</svg>
