<svg width="88" height="80" viewBox="0 0 88 80" fill="none" xmlns="http://www.w3.org/2000/svg">
<path d="M42.5643 62.9322H25.6036V66.0931H42.5643V62.9322Z" fill="#FFB413"/>
<path d="M48.7952 50.1123H25.6036V53.2732H48.7952V50.1123Z" fill="#FFB413"/>
<path d="M58.6418 37.2949H25.6036V40.4558H58.6418V37.2949Z" fill="#FFB413"/>
<path d="M58.6418 24.4775H43.0696V27.6385H58.6418V24.4775Z" fill="#FFB413"/>
<path d="M67.5847 73.2551C67.5847 74.8817 66.2631 76.2075 64.637 76.2075H19.6081C17.9818 76.2075 16.6603 74.8818 16.6603 73.2551V31.3255H34.6798C36.6724 31.3255 38.2932 29.7015 38.2932 27.7057V9.62249H64.6369C66.263 9.62249 67.5846 10.9458 67.5846 12.5725V33.8776L71.3728 30.0851V12.5723C71.3728 8.85529 68.3507 5.82982 64.6369 5.82982H37.3146C35.3508 5.82982 33.4697 6.60904 32.0827 7.99813L15.0399 25.0648C13.6514 26.4542 12.8726 28.3396 12.8726 30.3042V73.2551C12.8726 76.9745 15.8948 80 19.6081 80H64.637C68.3509 80 71.3729 76.9745 71.3729 73.2551V55.1168L67.5847 58.9094V73.2551ZM34.9259 10.5154V25.6763C34.9259 27.316 34.2879 27.9537 32.6508 27.9537H17.5101L34.9259 10.5154Z" fill="#FFB413"/>
<path d="M82.2004 35.7798L78.1842 31.7582C77.4857 31.0583 76.3527 31.0583 75.6536 31.7582L73.0498 34.3655L79.5974 40.921L82.2004 38.3139C82.8995 37.6138 82.8995 36.4798 82.2004 35.7798Z" fill="#FFB413"/>
<path d="M48.7965 58.6517L46.5645 67.4426L55.3433 65.2071L48.7965 58.6517Z" fill="#FFB413"/>
<path d="M50.1354 57.3103L56.6828 63.866L78.4069 42.1137L71.8595 35.5568L50.1354 57.3103ZM74.3895 41.0708L55.4624 60.023L53.9744 58.5318L72.9014 39.5796L74.3895 41.0708Z" fill="#FFB413"/>
<path d="M11.1762 0.352214C11.6285 -0.237301 12.5634 -0.0547406 12.7584 0.661149L13.8765 4.76624C13.9539 5.05052 14.1669 5.27867 14.4461 5.37633L18.4771 6.78671C19.18 7.03266 19.2945 7.97425 18.6708 8.38007L15.0943 10.7071C14.8467 10.8683 14.6945 11.1404 14.6875 11.4349L14.5856 15.687C14.5679 16.4285 13.7037 16.8279 13.1232 16.3628L9.79472 13.6959C9.56423 13.5113 9.25717 13.4513 8.97367 13.5356L4.87976 14.7532C4.16582 14.9655 3.51722 14.2708 3.78218 13.5775L5.30154 9.6022C5.40675 9.32691 5.36916 9.01771 5.20099 8.77536L2.77264 5.27577C2.34915 4.66548 2.8125 3.83672 3.55672 3.87335L7.82425 4.08335C8.11978 4.0979 8.40355 3.96674 8.58313 3.73265L11.1762 0.352214Z" fill="#FFB413"/>
<path d="M79.8916 15.9578C79.9621 15.4165 80.6387 15.1772 81.0366 15.5528L83.3179 17.7067C83.4759 17.8559 83.7007 17.9185 83.9191 17.8741L87.0723 17.2335C87.6222 17.1218 88.0533 17.6696 87.8017 18.1605L86.3595 20.9754C86.2596 21.1704 86.2638 21.3988 86.3708 21.5864L87.9152 24.2944C88.1845 24.7667 87.7743 25.3446 87.221 25.2724L84.0483 24.8582C83.8286 24.8295 83.6063 24.9081 83.4541 25.0684L81.2554 27.3827C80.8719 27.7862 80.1874 27.5956 80.0969 27.0601L79.5783 23.9891C79.5424 23.7765 79.4009 23.5966 79.1998 23.5081L76.2965 22.2304C75.7902 22.0075 75.7774 21.3118 76.2747 21.0531L79.127 19.5693C79.3245 19.4665 79.4592 19.2768 79.4872 19.0618L79.8916 15.9578Z" fill="#FFB413"/>
<path d="M2.70538 60.5885C2.74842 60.2114 3.21608 60.0377 3.49676 60.2944L5.10628 61.7666C5.21773 61.8685 5.37468 61.9096 5.52597 61.8763L7.71063 61.3965C8.09161 61.3129 8.39728 61.6889 8.22788 62.0329L7.25647 64.0053C7.1892 64.1419 7.19466 64.3006 7.27107 64.4298L8.37449 66.2952C8.56691 66.6205 8.28815 67.0267 7.90277 66.9825L5.6929 66.7294C5.53987 66.7118 5.38629 66.7689 5.28222 66.882L3.77951 68.5147C3.51745 68.7994 3.03952 68.6744 2.97074 68.3031L2.57636 66.1743C2.54905 66.0268 2.44868 65.9034 2.30795 65.844L0.275811 64.9877C-0.0785762 64.8384 -0.0952006 64.3549 0.247674 64.1696L2.21382 63.1071C2.34998 63.0335 2.44151 62.9001 2.4586 62.7504L2.70538 60.5885Z" fill="#FFB413"/>
</svg>
