<svg width="44" height="37" viewBox="0 0 44 37" fill="none" xmlns="http://www.w3.org/2000/svg">
<path d="M22 0L44 16.4335L42.0665 19.067L38 16V36.0335H6V16L1.9335 19.067L0 16.4335L22 0ZM13.2335 18.1335C13.2335 19.7892 14.1278 21.628 15.9165 23.65C17.7055 25.6723 19.7333 27.7002 22 29.7335C24.2667 27.7002 26.2945 25.6723 28.0835 23.65C29.8722 21.628 30.7665 19.7892 30.7665 18.1335C30.7665 16.7778 30.3165 15.6557 29.4165 14.767C28.5165 13.878 27.3998 13.4335 26.0665 13.4335C25.2665 13.4335 24.5138 13.6197 23.8085 13.992C23.1028 14.364 22.5 14.8223 22 15.367C21.5 14.8223 20.8917 14.364 20.175 13.992C19.4583 13.6197 18.7112 13.4335 17.9335 13.4335C16.6002 13.4335 15.4835 13.878 14.5835 14.767C13.6835 15.6557 13.2335 16.7778 13.2335 18.1335ZM34.6665 32.7V13.6335L22 4.167L9.3335 13.6335V32.7H34.6665Z" fill="#2E3E80"/>
</svg>
