<svg width="70" height="80" viewBox="0 0 70 80" fill="none" xmlns="http://www.w3.org/2000/svg">
<path d="M57.1227 42.5068C57.1269 42.504 57.131 42.5013 57.1351 42.4985L57.1529 42.4862L57.1227 42.5068Z" fill="#FFB413"/>
<path d="M67.9613 42.8494C67.3 42.1283 66.4934 41.5718 65.596 41.1965C64.6986 40.8223 63.7109 40.6302 62.6846 40.6302C61.7106 40.6316 60.7255 40.8044 59.7815 41.1224C58.8418 41.4418 57.9417 41.9049 57.1351 42.4985L57.068 42.548L57.0461 42.5616L56.9693 42.6274C56.8814 42.7015 56.7141 42.8302 56.4946 42.9893C55.7263 43.5582 54.305 44.5382 52.6202 45.6815C51.5143 46.4299 50.2906 47.2496 49.0531 48.0747C49.0559 48.0144 49.0585 47.954 49.0585 47.8938C49.0585 45.8857 48.2381 44.0557 46.9183 42.7385C45.5984 41.4212 43.7709 40.6015 41.7597 40.6015H26.3031C23.7622 40.6015 21.5808 40.8605 19.6903 41.3102C16.8504 41.9818 14.658 43.0866 12.8882 44.334C11.1184 45.5827 9.77386 46.9643 8.58028 48.1815C8.33333 48.4336 8.09171 48.6832 7.84758 48.9244L1.79991 54.2044C0.65841 55.2024 0 56.6457 0 58.1644V75.9617C0 77.545 0.927403 78.9814 2.36527 79.6367C2.89215 79.8766 3.46564 80.0014 4.0446 80C5.01861 79.9986 5.95993 79.6505 6.68137 79.0186L17.9506 69.3674L35.6819 72.5856C36.1729 72.6763 36.6696 72.7202 37.1635 72.7202C38.8867 72.7202 40.5522 72.1938 41.949 71.2067C43.1616 70.3638 49.0886 66.2461 54.9414 62.1463C57.869 60.0985 60.7721 58.0561 63.0634 56.4332C64.2049 55.6191 65.1953 54.9132 65.9554 54.3594C66.3368 54.084 66.6606 53.8469 66.9213 53.6522C67.182 53.4575 67.374 53.3082 67.5113 53.1944L67.5579 53.1575L67.577 53.141L67.6374 53.0849C68.3784 52.4064 68.96 51.6115 69.3661 50.7422C69.7668 49.8719 69.9889 48.9276 70 47.9597C70 47.931 70 47.9008 70 47.8719C70 46.0433 69.2618 44.264 67.9613 42.8494ZM65.3133 50.5583C63.5736 52.0057 39.9842 68.3939 39.9842 68.3939C38.9114 69.1492 37.5861 69.4452 36.2965 69.2122L17.8163 65.8553C17.2758 65.7581 16.7159 65.9074 16.299 66.2625L4.43981 76.4208C4.26152 76.5784 4.00629 76.6126 3.78953 76.5139C3.57293 76.4153 3.4328 76.1986 3.4328 75.9614V58.1644C3.4328 57.6339 3.66066 57.135 4.06118 56.7883L10.1966 51.4329C13.5798 48.0541 16.6393 44.0326 26.3032 44.0326C35.9646 44.0326 39.8252 44.0326 41.7597 44.0326C43.8945 44.0326 45.6259 45.761 45.6259 47.8938C45.6259 50.0252 43.8945 51.7538 41.7597 51.7538C41.7597 51.7538 33.7091 51.7538 31.1298 51.7538L31.1764 51.7783C30.419 51.7538 29.7825 52.3486 29.7523 53.1064C29.7304 53.8658 30.3286 54.5019 31.0858 54.5264L31.1298 54.5046H45.5572C45.5572 54.5046 57.4274 46.7108 59.1642 45.2646C61.063 43.8596 63.9057 43.5074 65.4313 45.1674C66.9569 46.8272 66.9735 49.0355 65.3133 50.5583Z" fill="#FFB413"/>
<path d="M28.8028 31.9249C31.9529 34.0798 35.9151 35.6588 35.9151 35.6588C36.2801 35.7766 36.8425 35.8809 37.0373 35.8809C37.232 35.8809 37.7946 35.7766 38.1622 35.6588C38.1622 35.6588 42.1218 34.0798 45.2745 31.9249C50.0708 28.6585 57.8499 22.2449 57.8499 13.2079C57.8499 4.03795 52.6585 -0.116726 46.9485 0.00249224C42.5938 0.0834296 40.02 2.65342 38.2941 5.18795C37.9785 5.6567 37.5065 5.95826 37.0375 5.97201C36.5683 5.95826 36.099 5.6567 35.7835 5.18795C34.0548 2.65342 31.4838 0.0834296 27.1291 0.00249224C21.4164 -0.116726 16.2249 4.0378 16.2249 13.2079C16.2247 22.2449 24.0066 28.6585 28.8028 31.9249Z" fill="#FFB413"/>
</svg>
