<?xml version="1.0" encoding="UTF-8"?>
<svg id="Capa_1" xmlns="http://www.w3.org/2000/svg" version="1.1" viewBox="0 0 44 38">
  <!-- Generator: Adobe Illustrator 30.4.0, SVG Export Plug-In . SVG Version: 2.1.4 Build 226)  -->
  <defs>
    <style>
      .st0 {
        fill: #2e3e80;
      }
    </style>
  </defs>
  <path class="st0" d="M0,38v-8c0-1.02.36-1.89,1.08-2.6.72-.71,1.58-1.07,2.59-1.07h6.88c.6,0,1.17.15,1.72.45.54.3,1,.71,1.37,1.23.97,1.37,2.19,2.43,3.66,3.18,1.47.76,3.04,1.13,4.71,1.13s3.25-.38,4.73-1.13c1.47-.76,2.7-1.82,3.67-3.18.39-.52.85-.93,1.38-1.23.53-.3,1.09-.45,1.68-.45h6.88c1.02,0,1.89.36,2.6,1.07.71.71,1.07,1.58,1.07,2.6v8h-13.33v-5.48c-1.19,1.01-2.52,1.79-4.01,2.33-1.48.54-3.04.82-4.66.82s-3.16-.28-4.63-.83c-1.48-.55-2.82-1.33-4.03-2.34v5.5H0ZM6,23.33c-1.56,0-2.89-.56-4-1.67-1.11-1.11-1.67-2.44-1.67-4s.56-2.93,1.67-4.02c1.11-1.09,2.44-1.64,4-1.64s2.93.55,4.02,1.64c1.09,1.09,1.64,2.44,1.64,4.02s-.55,2.89-1.64,4c-1.09,1.11-2.44,1.67-4.02,1.67ZM38,23.33c-1.56,0-2.89-.56-4-1.67-1.11-1.11-1.67-2.44-1.67-4s.56-2.93,1.67-4.02c1.11-1.09,2.44-1.64,4-1.64s2.93.55,4.03,1.64c1.09,1.09,1.64,2.44,1.64,4.02s-.55,2.89-1.64,4c-1.09,1.11-2.44,1.67-4.03,1.67ZM22,18c-2.02-1.76-3.7-3.24-5.03-4.44-1.33-1.21-2.39-2.26-3.17-3.16-.78-.9-1.33-1.72-1.65-2.47s-.48-1.54-.48-2.36c0-1.56.55-2.87,1.65-3.95,1.1-1.08,2.44-1.62,4.03-1.62.91,0,1.77.21,2.58.62.81.42,1.5.99,2.07,1.71.57-.72,1.26-1.29,2.07-1.71.81-.42,1.67-.62,2.58-.62,1.59,0,2.93.54,4.03,1.62,1.1,1.08,1.65,2.39,1.65,3.95,0,.82-.16,1.61-.48,2.36-.32.75-.87,1.57-1.65,2.47-.78.9-1.83,1.95-3.17,3.16-1.33,1.21-3.01,2.69-5.03,4.44ZM22,13.57c2.69-2.31,4.53-4.02,5.52-5.14.99-1.12,1.48-2.05,1.48-2.79,0-.63-.22-1.18-.67-1.62-.44-.45-.98-.68-1.62-.68-.42,0-.84.12-1.26.35s-.89.62-1.42,1.15l-2.02,2.08-2.02-2.05c-.56-.56-1.04-.95-1.46-1.18s-.84-.35-1.26-.35c-.63,0-1.17.23-1.62.68-.44.45-.67.99-.67,1.62,0,.74.49,1.67,1.48,2.79.99,1.12,2.83,2.83,5.52,5.14Z"/>
</svg>