<svg width="44" height="38" viewBox="0 0 44 38" fill="none" xmlns="http://www.w3.org/2000/svg">
<path d="M0 38V30C0 28.9777 0.358333 28.111 1.075 27.4C1.79167 26.689 2.6555 26.3335 3.6665 26.3335H10.55C11.15 26.3335 11.7222 26.4835 12.2665 26.7835C12.8112 27.0835 13.2668 27.4945 13.6335 28.0165C14.6002 29.3832 15.8195 30.4443 17.2915 31.2C18.7638 31.9557 20.3333 32.3335 22 32.3335C23.6777 32.3335 25.2527 31.9557 26.725 31.2C28.1973 30.4443 29.4223 29.3832 30.4 28.0165C30.789 27.4945 31.2473 27.0835 31.775 26.7835C32.3027 26.4835 32.861 26.3335 33.45 26.3335H40.3335C41.3555 26.3335 42.2222 26.689 42.9335 27.4C43.6445 28.111 44 28.9777 44 30V38H30.6665V32.5165C29.4778 33.5278 28.1418 34.3057 26.6585 34.85C25.1752 35.3943 23.6223 35.6665 22 35.6665C20.389 35.6665 18.8445 35.3915 17.3665 34.8415C15.8888 34.2915 14.5445 33.511 13.3335 32.5V38H0ZM6 23.3335C4.44433 23.3335 3.111 22.7778 2 21.6665C0.889 20.5555 0.3335 19.2222 0.3335 17.6665C0.3335 16.0778 0.889 14.7362 2 13.6415C3.111 12.5472 4.44433 12 6 12C7.589 12 8.93067 12.5472 10.025 13.6415C11.1193 14.7362 11.6665 16.0778 11.6665 17.6665C11.6665 19.2222 11.1193 20.5555 10.025 21.6665C8.93067 22.7778 7.589 23.3335 6 23.3335ZM38 23.3335C36.4443 23.3335 35.111 22.7778 34 21.6665C32.889 20.5555 32.3335 19.2222 32.3335 17.6665C32.3335 16.0778 32.889 14.7362 34 13.6415C35.111 12.5472 36.4443 12 38 12C39.589 12 40.9307 12.5472 42.025 13.6415C43.1193 14.7362 43.6665 16.0778 43.6665 17.6665C43.6665 19.2222 43.1193 20.5555 42.025 21.6665C40.9307 22.7778 39.589 23.3335 38 23.3335ZM22 18C19.9777 16.2443 18.2998 14.7638 16.9665 13.5585C15.6332 12.3528 14.5777 11.3 13.8 10.4C13.0223 9.5 12.4723 8.675 12.15 7.925C11.8277 7.175 11.6665 6.38883 11.6665 5.5665C11.6665 4.01117 12.2165 2.6945 13.3165 1.6165C14.4165 0.538834 15.761 0 17.35 0C18.261 0 19.1222 0.208333 19.9335 0.625C20.7445 1.04167 21.4333 1.61117 22 2.3335C22.5667 1.61117 23.2555 1.04167 24.0665 0.625C24.8778 0.208333 25.739 0 26.65 0C28.239 0 29.5835 0.538834 30.6835 1.6165C31.7835 2.6945 32.3335 4.01117 32.3335 5.5665C32.3335 6.38883 32.1723 7.175 31.85 7.925C31.5277 8.675 30.9777 9.5 30.2 10.4C29.4223 11.3 28.3668 12.3528 27.0335 13.5585C25.7002 14.7638 24.0223 16.2443 22 18ZM22 13.5665C24.689 11.2555 26.5278 9.54167 27.5165 8.425C28.5055 7.30833 29 6.37783 29 5.6335C29 5.00017 28.7778 4.4585 28.3335 4.0085C27.8888 3.5585 27.3498 3.3335 26.7165 3.3335C26.2945 3.3335 25.8752 3.45017 25.4585 3.6835C25.0418 3.91683 24.5668 4.30017 24.0335 4.8335L22.0165 6.9165L20 4.8665C19.4443 4.31117 18.9582 3.91683 18.5415 3.6835C18.1248 3.45017 17.7055 3.3335 17.2835 3.3335C16.6502 3.3335 16.1112 3.5585 15.6665 4.0085C15.2222 4.4585 15 5.00017 15 5.6335C15 6.37783 15.4945 7.30833 16.4835 8.425C17.4722 9.54167 19.311 11.2555 22 13.5665Z" fill="#2E3E80"/>
</svg>
