<svg width="122" height="80" viewBox="0 0 122 80" fill="none" xmlns="http://www.w3.org/2000/svg">
<path d="M1.04018 58.6592C0.319185 58.4808 -0.131201 57.6804 0.0342115 56.8715C0.199624 56.0626 0.918197 55.5516 1.63919 55.7301L19.9158 60.2542C20.6368 60.4327 21.0872 61.2331 20.9218 62.0419C20.7563 62.8508 20.0378 63.3618 19.3168 63.1833L1.04018 58.6592Z" fill="#FFB413"/>
<path d="M8.44151 11.4756C7.70236 11.5151 7.07958 10.8764 7.05048 10.049C7.02139 9.22166 7.597 8.51892 8.33615 8.47943L27.0731 7.4783C27.8122 7.43881 28.435 8.07751 28.4641 8.90488C28.4932 9.73225 27.9176 10.435 27.1784 10.4745L8.44151 11.4756Z" fill="#FFB413"/>
<path d="M2.58038 41.5867C1.84577 41.4964 1.32061 40.7557 1.4074 39.9323C1.4942 39.1089 2.16009 38.5147 2.8947 38.605L21.5166 40.8944C22.2512 40.9848 22.7764 41.7255 22.6896 42.5488C22.6028 43.3722 21.9369 43.9665 21.2023 43.8762L2.58038 41.5867Z" fill="#FFB413"/>
<path d="M4.98929 26.041C4.24985 26.0231 3.67025 25.3374 3.69473 24.5094C3.71921 23.6814 4.33849 23.0246 5.07793 23.0425L23.8222 23.4952C24.5617 23.5131 25.1412 24.1988 25.1168 25.0268C25.0923 25.8548 24.473 26.5115 23.7336 26.4937L4.98929 26.041Z" fill="#FFB413"/>
<path d="M40.6593 4.88301L113.439 0.0153145C118.601 -0.336993 122.079 5.44917 121.456 11.1907L114.828 72.6246C114.187 78.6169 108.017 80 106.304 80C105.855 80 105.399 79.9585 104.952 79.8738L34.1288 66.6738C29.5396 65.8154 29.3464 60.3184 29.5994 57.9631L34.4661 12.8461C35.0488 7.45994 39.3038 4.97686 40.6593 4.88301ZM113.624 2.76609L40.8525 7.63532C40.4216 7.66455 39.9463 7.90147 39.4878 8.30147L52.6376 27.2738C52.7728 26.6839 52.9454 26.1032 53.1543 25.5353C57.7098 13.3692 68.2576 18.1169 69.0028 25.0246C70.8412 18.503 84.175 12.1753 86.774 25.9076C87.0294 27.2622 87.0919 28.6463 86.9596 30.0184L116.232 3.41224C115.454 2.92245 114.54 2.69598 113.624 2.76609ZM37.2384 13.1369L32.3716 58.2538C32.2946 58.9612 32.3054 59.6753 32.4038 60.38L53.8627 38.2569C52.9366 36.0092 52.3279 33.6538 52.2451 31.2584L37.8303 10.7753C37.5313 11.5138 37.3273 12.3215 37.2384 13.1369ZM34.6455 63.9615L105.468 77.1631C106.47 77.347 107.504 77.1934 108.409 76.7262L81.8751 41.2292C77.2219 47.0397 70.6377 51.4558 67.4592 53.5876C66.5393 54.2046 65.9046 54.6303 65.6847 54.8431C65.4733 54.4209 64.7263 53.5898 63.6847 52.4308C61.4009 49.8897 57.7009 45.7729 55.1262 40.9369L33.5247 63.2092C33.8697 63.6246 34.2561 63.8892 34.6455 63.9615ZM112.057 70.9523L118.686 9.51994C118.844 8.05071 118.618 6.6507 118.057 5.49993L85.4615 35.5C84.9277 36.6757 84.3006 37.8066 83.5863 38.8815L110.53 74.9246C111.356 73.8323 111.896 72.4477 112.057 70.9523Z" fill="#FFB413"/>
</svg>
