<svg width="18" height="18" viewBox="0 0 18 18" fill="none" xmlns="http://www.w3.org/2000/svg">
<path d="M15.8203 0H1.89844C1.39494 0 0.912066 0.200013 0.556039 0.55604C0.200013 0.912066 0 1.39494 0 1.89844L0 15.8203C0 16.3238 0.200013 16.8067 0.556039 17.1627C0.912066 17.5187 1.39494 17.7188 1.89844 17.7188H7.32678V11.6948H4.83508V8.85938H7.32678V6.69832C7.32678 4.24024 8.79016 2.88246 11.0315 2.88246C12.1049 2.88246 13.2274 3.07389 13.2274 3.07389V5.48648H11.9906C10.7721 5.48648 10.392 6.2427 10.392 7.01829V8.85938H13.1123L12.6772 11.6948H10.392V17.7188H15.8203C16.3238 17.7188 16.8067 17.5187 17.1627 17.1627C17.5187 16.8067 17.7188 16.3238 17.7188 15.8203V1.89844C17.7188 1.39494 17.5187 0.912066 17.1627 0.55604C16.8067 0.200013 16.3238 0 15.8203 0Z" fill="#F0F0F0"/>
</svg>
