<svg width="18" height="18" viewBox="0 0 18 18" fill="none" xmlns="http://www.w3.org/2000/svg">
<path d="M8.8663 4.31796C6.35087 4.31796 4.32191 6.34691 4.32191 8.86234C4.32191 11.3778 6.35087 13.4067 8.8663 13.4067C11.3817 13.4067 13.4107 11.3778 13.4107 8.86234C13.4107 6.34691 11.3817 4.31796 8.8663 4.31796ZM8.8663 11.8168C7.24076 11.8168 5.91185 10.4918 5.91185 8.86234C5.91185 7.23285 7.2368 5.9079 8.8663 5.9079C10.4958 5.9079 11.8207 7.23285 11.8207 8.86234C11.8207 10.4918 10.4918 11.8168 8.8663 11.8168ZM14.6565 4.13207C14.6565 4.72138 14.1819 5.19203 13.5966 5.19203C13.0073 5.19203 12.5366 4.71742 12.5366 4.13207C12.5366 3.54672 13.0112 3.07211 13.5966 3.07211C14.1819 3.07211 14.6565 3.54672 14.6565 4.13207ZM17.6663 5.20785C17.5991 3.78798 17.2748 2.53026 16.2346 1.49403C15.1984 0.4578 13.9407 0.133484 12.5208 0.0622925C11.0574 -0.0207642 6.67123 -0.0207642 5.20785 0.0622925C3.79193 0.129529 2.53422 0.453845 1.49403 1.49008C0.453845 2.52631 0.133484 3.78402 0.0622925 5.2039C-0.0207642 6.66727 -0.0207642 11.0535 0.0622925 12.5168C0.129529 13.9367 0.453845 15.1944 1.49403 16.2307C2.53422 17.2669 3.78798 17.5912 5.20785 17.6624C6.67123 17.7454 11.0574 17.7454 12.5208 17.6624C13.9407 17.5952 15.1984 17.2708 16.2346 16.2307C17.2708 15.1944 17.5952 13.9367 17.6663 12.5168C17.7494 11.0535 17.7494 6.67123 17.6663 5.20785ZM15.7758 14.087C15.4673 14.8622 14.8701 15.4594 14.091 15.7719C12.9242 16.2346 10.1557 16.1278 8.8663 16.1278C7.57694 16.1278 4.80443 16.2307 3.64164 15.7719C2.86644 15.4634 2.26923 14.8662 1.95677 14.087C1.49403 12.9203 1.60082 10.1517 1.60082 8.86234C1.60082 7.57299 1.49799 4.80048 1.95677 3.63768C2.26527 2.86249 2.86249 2.26527 3.64164 1.95282C4.80839 1.49008 7.57694 1.59686 8.8663 1.59686C10.1557 1.59686 12.9282 1.49403 14.091 1.95282C14.8662 2.26132 15.4634 2.85853 15.7758 3.63768C16.2386 4.80443 16.1318 7.57299 16.1318 8.86234C16.1318 10.1517 16.2386 12.9242 15.7758 14.087Z" fill="#F0F0F0"/>
</svg>
