<?xml version="1.0" encoding="UTF-8"?>
<svg id="Capa_1" data-name="Capa 1" xmlns="http://www.w3.org/2000/svg" viewBox="0 0 17.72 17.72">
  <defs>
    <style>
      .cls-1 {
        fill: #f0f0f0;
      }
    </style>
  </defs>
  <path class="cls-1" d="M3.97,17.72H.29V5.89h3.67v11.83ZM2.13,4.28c-1.17,0-2.13-.97-2.13-2.15,0-.56.22-1.11.62-1.5.4-.4.94-.62,1.5-.62s1.11.22,1.5.62c.4.4.62.94.62,1.5,0,1.17-.95,2.15-2.13,2.15ZM17.71,17.72h-3.67v-5.76c0-1.37-.03-3.13-1.91-3.13s-2.2,1.49-2.2,3.03v5.86h-3.67V5.89h3.52v1.61h.05c.49-.93,1.69-1.91,3.48-1.91,3.72,0,4.4,2.45,4.4,5.63v6.5h0Z"/>
</svg>