<svg width="140" height="59" viewBox="0 0 140 59" fill="none" xmlns="http://www.w3.org/2000/svg">
<path d="M52.5985 4.81998V8.43309H55.9999V10.3339H52.619V15.9993H50.3555V2.80859H56.2793V4.81998H52.5985Z" fill="#F0F0F0"/>
<path d="M66.9306 13.2793C66.7827 13.8896 66.5362 14.4181 66.2034 14.8728C65.8666 15.3275 65.4352 15.6839 64.9053 15.942C64.3754 16.2001 63.7304 16.3352 62.9704 16.3352C62.2104 16.3352 61.5696 16.2042 61.0478 15.942C60.5261 15.6798 60.0989 15.3234 59.7661 14.8728C59.4334 14.4222 59.1992 13.8896 59.0554 13.2793C58.9116 12.673 58.8418 12.0175 58.8418 11.3211V2.80859H61.0848V11.1204C61.0848 11.53 61.1136 11.9233 61.167 12.3043C61.2245 12.6853 61.3231 13.0171 61.4668 13.2997C61.6106 13.5865 61.8078 13.8118 62.0543 13.9798C62.3049 14.1477 62.6212 14.2296 63.0074 14.2296C63.3935 14.2296 63.7099 14.1436 63.9604 13.9798C64.211 13.8118 64.4041 13.5865 64.5479 13.2997C64.6917 13.013 64.7903 12.6812 64.8478 12.3043C64.9053 11.9274 64.9299 11.53 64.9299 11.1204V2.80859H67.1524V11.3252C67.1524 12.0216 67.0785 12.673 66.9265 13.2833" fill="#F0F0F0"/>
<path d="M76.3275 15.9993L72.5728 6.68388H72.5152L72.5522 15.9993H70.5352V2.80859H73.0945L76.8164 12.1773H76.8698L76.8534 2.80859H78.7965V15.9993H76.3275Z" fill="#F0F0F0"/>
<path d="M88.6417 9.42035C88.6417 8.63792 88.5719 7.9538 88.4281 7.3721C88.2843 6.79039 88.0831 6.30291 87.8201 5.91784C87.5572 5.53277 87.2491 5.24601 86.8876 5.05348C86.5261 4.86094 86.1358 4.76672 85.7086 4.76672H84.6446V14.0453H85.7086C86.1317 14.0453 86.5261 13.9511 86.8876 13.7585C87.2491 13.566 87.5613 13.2793 87.8201 12.8942C88.0831 12.5091 88.2843 12.0257 88.4281 11.4522C88.5719 10.8746 88.6417 10.1987 88.6417 9.42854M90.8806 9.42035C90.8806 11.5055 90.4411 13.1236 89.562 14.2747C88.6828 15.4217 87.3929 15.9993 85.6839 15.9993H82.377V2.80859H85.7045C87.397 2.80859 88.6869 3.3903 89.562 4.54961C90.4411 5.71301 90.8806 7.33523 90.8806 9.42035Z" fill="#F0F0F0"/>
<path d="M96.8623 4.9142H96.7884L95.3506 11.4522H98.2673L96.8664 4.9142H96.8623ZM99.1957 15.9993L98.5425 13.2055H95.0671L94.3934 15.9993H92.1504L95.441 2.80859H98.3002L101.533 15.9993H99.1998H99.1957Z" fill="#F0F0F0"/>
<path d="M110.043 15.8516C109.501 16.1753 108.819 16.335 107.997 16.335C107.25 16.335 106.576 16.163 105.972 15.8148C105.368 15.4666 104.859 14.9873 104.44 14.3728C104.021 13.7583 103.7 13.0292 103.47 12.1853C103.24 11.3414 103.125 10.4156 103.125 9.40784C103.125 8.4001 103.24 7.47429 103.47 6.62222C103.7 5.77015 104.029 5.03688 104.452 4.4224C104.875 3.80793 105.389 3.32863 105.992 2.98863C106.596 2.64862 107.266 2.47656 108.001 2.47656C108.737 2.47656 109.427 2.61584 110.002 2.89441C110.573 3.17297 111.041 3.57442 111.403 4.09468L110.113 5.65954C109.603 4.92627 108.942 4.56168 108.133 4.56168C107.685 4.56168 107.291 4.68867 106.958 4.94266C106.621 5.19664 106.342 5.54075 106.116 5.97498C105.89 6.4092 105.721 6.92127 105.61 7.51116C105.499 8.10106 105.442 8.73192 105.442 9.40375C105.442 10.0756 105.499 10.686 105.61 11.2758C105.721 11.8657 105.89 12.3778 106.116 12.812C106.342 13.2463 106.621 13.5904 106.966 13.8444C107.307 14.0983 107.71 14.2253 108.17 14.2253C108.605 14.2253 108.983 14.1147 109.299 13.8894C109.616 13.6641 109.883 13.3937 110.092 13.0701L111.382 14.5776C111.033 15.0979 110.589 15.5198 110.047 15.8434" fill="#F0F0F0"/>
<path d="M116.11 2.80859H113.867V15.9993H116.11V2.80859Z" fill="#F0F0F0"/>
<path d="M137.425 15.9993L133.67 6.68388H133.613L133.65 15.9993H131.633V2.80859H134.192L137.91 12.1773H137.967L137.947 2.80859H139.89V15.9993H137.425Z" fill="#F0F0F0"/>
<path d="M126.319 9.62985C126.319 8.9826 126.266 8.37632 126.159 7.80691C126.052 7.23749 125.896 6.74591 125.691 6.33217C125.485 5.91842 125.231 5.5907 124.927 5.3531C124.623 5.11551 124.269 4.99261 123.871 4.99261C123.473 4.99261 123.103 5.11141 122.799 5.3531C122.495 5.5907 122.24 5.91842 122.035 6.33217C121.829 6.74591 121.677 7.23749 121.575 7.80691C121.476 8.37632 121.427 8.9826 121.427 9.62985C121.427 10.2771 121.476 10.8834 121.575 11.4528C121.673 12.0222 121.829 12.5179 122.035 12.9357C122.24 13.3536 122.495 13.6854 122.799 13.923C123.103 14.1647 123.46 14.2835 123.871 14.2835C124.282 14.2835 124.639 14.1647 124.943 13.923C125.247 13.6854 125.502 13.3536 125.707 12.9357C125.913 12.5179 126.065 12.0222 126.163 11.4528C126.262 10.8834 126.311 10.2771 126.311 9.62985M128.636 9.62985C128.636 10.6376 128.525 11.5511 128.308 12.3704C128.09 13.1897 127.774 13.8943 127.363 14.4801C126.952 15.0659 126.451 15.5247 125.859 15.8483C125.268 16.172 124.606 16.3317 123.871 16.3317C123.136 16.3317 122.458 16.172 121.87 15.8483C121.287 15.5247 120.786 15.07 120.375 14.4801C119.964 13.8943 119.648 13.1897 119.43 12.3704C119.212 11.5511 119.102 10.6376 119.102 9.62985C119.102 8.62211 119.208 7.71269 119.418 6.89749C119.631 6.08228 119.94 5.38178 120.35 4.79598C120.761 4.21018 121.262 3.75547 121.854 3.44004C122.446 3.12461 123.115 2.96484 123.863 2.96484C124.61 2.96484 125.26 3.12461 125.851 3.44004C126.443 3.75547 126.944 4.21018 127.355 4.79598C127.765 5.38178 128.082 6.08228 128.3 6.89749C128.517 7.71269 128.628 8.62211 128.628 9.62985" fill="#F0F0F0"/>
<path d="M9.15296 55.0831V50.6465H5.79256V55.0831H4.56836V45.4727H5.79256V49.561H9.15296V45.4727H10.3813V55.0831H9.15296Z" fill="#F0F0F0"/>
<path d="M15.9331 51.681C15.9331 51.3124 15.9085 50.9682 15.8592 50.6446C15.8099 50.3251 15.7277 50.0465 15.6209 49.813C15.51 49.5795 15.3744 49.3952 15.2142 49.26C15.0499 49.1248 14.8609 49.0552 14.6432 49.0552C14.4254 49.0552 14.2365 49.1207 14.0722 49.26C13.9078 49.3952 13.7764 49.5795 13.6696 49.813C13.5669 50.0465 13.4888 50.3251 13.4395 50.6446C13.3902 50.9642 13.3656 51.3083 13.3656 51.681C13.3656 52.0538 13.3902 52.3938 13.4395 52.7093C13.4888 53.0247 13.5669 53.2992 13.6696 53.5368C13.7723 53.7703 13.9078 53.9546 14.0722 54.0898C14.2365 54.225 14.4254 54.2946 14.6432 54.2946C14.8609 54.2946 15.0663 54.2291 15.2306 54.0898C15.395 53.9546 15.5264 53.7703 15.6332 53.5368C15.7359 53.3033 15.814 53.0288 15.8633 52.7093C15.9126 52.3938 15.9372 52.0497 15.9372 51.681M17.1286 51.6892C17.1286 52.2341 17.071 52.7256 16.9601 53.1681C16.8451 53.6105 16.6849 53.9915 16.4713 54.3069C16.2576 54.6223 15.9988 54.8722 15.6907 55.0484C15.3826 55.2245 15.0334 55.3146 14.6432 55.3146C14.2529 55.3146 13.916 55.2286 13.6079 55.0484C13.2998 54.8722 13.0369 54.6264 12.8233 54.3069C12.6097 53.9915 12.4454 53.6105 12.3344 53.1681C12.2194 52.7256 12.166 52.23 12.166 51.6892C12.166 51.1485 12.2235 50.6487 12.3344 50.1981C12.4495 49.7475 12.6097 49.3624 12.8192 49.0429C13.0287 48.7275 13.2875 48.4776 13.5956 48.3014C13.9037 48.1253 14.2529 48.0352 14.6432 48.0352C15.0334 48.0352 15.3826 48.1253 15.6907 48.3014C15.9988 48.4776 16.2618 48.7234 16.4713 49.0429C16.6849 49.3583 16.8492 49.7434 16.9601 50.1981C17.0751 50.6528 17.1286 51.1485 17.1286 51.6892Z" fill="#F0F0F0"/>
<path d="M21.5531 49.5583C21.4339 49.3862 21.2819 49.2429 21.0971 49.1323C20.9122 49.0176 20.6904 48.9643 20.4357 48.9643C20.181 48.9643 19.955 49.0585 19.7825 49.2429C19.61 49.4272 19.5237 49.6812 19.5237 49.9966C19.5237 50.3121 19.61 50.5455 19.7907 50.6889C19.9674 50.8323 20.2385 50.9757 20.6 51.1109C20.789 51.1846 20.9779 51.2706 21.1669 51.3771C21.3518 51.4796 21.5202 51.6147 21.6722 51.7786C21.8201 51.9425 21.9433 52.135 22.0337 52.3562C22.1241 52.5774 22.1693 52.8437 22.1693 53.1509C22.1693 53.5032 22.1159 53.8146 22.0132 54.089C21.9105 54.3594 21.7626 54.5847 21.5777 54.769C21.3929 54.9493 21.171 55.0886 20.9163 55.1828C20.6616 55.277 20.3864 55.3262 20.0865 55.3262C19.6798 55.3262 19.306 55.2401 18.9691 55.0763C18.6322 54.9083 18.3529 54.683 18.127 54.4045L18.8089 53.6589C18.965 53.8473 19.1458 54.0153 19.3553 54.1546C19.5648 54.2938 19.8236 54.3635 20.1317 54.3635C20.4234 54.3635 20.6493 54.2611 20.8177 54.0522C20.9862 53.8432 21.0683 53.5729 21.0683 53.237C21.0683 53.0485 21.0355 52.8847 20.9738 52.7495C20.9122 52.6143 20.8259 52.4996 20.715 52.4013C20.6041 52.307 20.4768 52.2251 20.3248 52.1555C20.1769 52.0858 20.0126 52.0203 19.84 51.9588C19.6675 51.8974 19.499 51.8196 19.3306 51.7294C19.1622 51.6393 19.0102 51.5205 18.8746 51.3689C18.7391 51.2215 18.6281 51.0371 18.546 50.8241C18.4638 50.6111 18.4227 50.353 18.4227 50.0458C18.4227 49.7385 18.4761 49.4764 18.5788 49.2306C18.6815 48.9848 18.8253 48.7759 19.0061 48.5997C19.1868 48.4236 19.4005 48.2884 19.6469 48.1942C19.8934 48.0999 20.1563 48.0508 20.4357 48.0508C20.8424 48.0508 21.1957 48.1204 21.4915 48.2597C21.7872 48.399 22.0296 48.5833 22.2186 48.8086L21.5531 49.5665V49.5583Z" fill="#F0F0F0"/>
<path d="M24.8895 51.6686C24.8895 52.0372 24.9182 52.3855 24.9716 52.705C25.025 53.0245 25.1113 53.3031 25.2222 53.5366C25.3373 53.7701 25.4728 53.9544 25.6372 54.0937C25.8015 54.2289 25.9904 54.2944 26.2082 54.2944C26.4259 54.2944 26.6272 54.2248 26.7874 54.0937C26.9476 53.9585 27.0791 53.7742 27.1818 53.5366C27.2845 53.3031 27.3625 53.0245 27.4118 52.705C27.4611 52.3855 27.4858 52.0413 27.4858 51.6686C27.4858 51.2958 27.4611 50.9681 27.4118 50.6444C27.3625 50.3249 27.2845 50.0463 27.1818 49.8128C27.0791 49.5793 26.9476 49.395 26.7874 49.2557C26.6272 49.1205 26.4341 49.0509 26.2082 49.0509C25.9822 49.0509 25.7974 49.1205 25.6289 49.2557C25.4605 49.3909 25.3208 49.5753 25.214 49.8128C25.1031 50.0463 25.025 50.3249 24.9675 50.6444C24.9141 50.964 24.8854 51.304 24.8854 51.6686M24.8895 48.2685V49.3254H24.9182C25.025 48.9526 25.2017 48.6453 25.4441 48.4037C25.6823 48.1579 26.0397 48.0391 26.5122 48.0391C26.8572 48.0391 27.1653 48.1333 27.4365 48.3176C27.7076 48.502 27.9377 48.76 28.1225 49.0837C28.3074 49.4073 28.4512 49.7965 28.5457 50.243C28.6401 50.6895 28.6894 51.177 28.6894 51.7013C28.6894 52.2257 28.6443 52.7091 28.5539 53.1556C28.4635 53.598 28.3238 53.979 28.139 54.2944C27.9541 54.6098 27.724 54.8597 27.4529 55.04C27.1818 55.2202 26.8696 55.3104 26.5122 55.3104C26.1137 55.3104 25.7768 55.1957 25.5057 54.9622C25.2346 54.7327 25.0456 54.4378 24.947 54.0855H24.9182V58.3336H23.7598V48.2603H24.8895V48.2685Z" fill="#F0F0F0"/>
<path d="M30.4031 48.2706H31.5616V55.0831H30.4031V48.2706ZM31.7095 46.2469C31.7095 46.4722 31.6397 46.6565 31.5 46.804C31.3603 46.9474 31.1878 47.0211 30.9906 47.0211C30.7811 47.0211 30.6085 46.9474 30.473 46.804C30.3374 46.6606 30.2676 46.4722 30.2676 46.2469C30.2676 46.0216 30.3374 45.8454 30.473 45.698C30.6085 45.5505 30.7811 45.4727 30.9906 45.4727C31.2001 45.4727 31.3726 45.5464 31.5082 45.698C31.6438 45.8454 31.7136 46.0298 31.7136 46.2469" fill="#F0F0F0"/>
<path d="M35.7105 55.2036C35.5462 55.2405 35.3819 55.2569 35.2216 55.2569C34.6958 55.2569 34.322 55.0889 34.1001 54.753C33.8783 54.4171 33.7674 53.9542 33.7674 53.3561V49.2023H32.8965V48.2642H33.7551V46.4453H34.8848V48.2642H36.0967V49.2023H34.8848V53.1144C34.8848 53.5118 34.9423 53.7985 35.0614 53.9747C35.1806 54.1508 35.3572 54.2369 35.5914 54.2369C35.6735 54.2369 35.7598 54.2287 35.8502 54.2082C35.9406 54.1877 36.0186 54.1672 36.0802 54.1426L36.109 55.0644C36.0104 55.1176 35.8789 55.1627 35.7146 55.1995" fill="#F0F0F0"/>
<path d="M40.1358 51.7298H39.6305C39.421 51.7298 39.2197 51.7503 39.0266 51.7831C38.8294 51.8199 38.6569 51.8896 38.5008 51.992C38.3447 52.0944 38.2214 52.2378 38.1269 52.418C38.0325 52.5983 37.9832 52.8318 37.9832 53.1103C37.9832 53.5282 38.0735 53.8313 38.2543 54.028C38.4351 54.2246 38.6446 54.3188 38.8828 54.3188C39.1211 54.3188 39.3142 54.2492 39.4744 54.1099C39.6346 53.9706 39.762 53.7904 39.8605 53.5732C39.9591 53.3561 40.0331 53.1185 40.0701 52.8605C40.1111 52.6024 40.1317 52.3566 40.1317 52.119V51.7257L40.1358 51.7298ZM40.3124 55.0808C40.2755 54.8718 40.2508 54.6629 40.2303 54.4581C40.2138 54.2492 40.2015 54.0812 40.2015 53.9542H40.1728C40.0742 54.3598 39.8934 54.6793 39.6346 54.9128C39.3758 55.1422 39.0184 55.261 38.5665 55.261C38.3775 55.261 38.1804 55.2241 37.9832 55.1545C37.7819 55.0808 37.6052 54.9661 37.445 54.8022C37.2848 54.6383 37.1533 54.4294 37.0506 54.1795C36.9479 53.9255 36.8945 53.6142 36.8945 53.2414C36.8945 52.7539 36.9808 52.3525 37.1616 52.0412C37.3382 51.7298 37.56 51.484 37.8271 51.3079C38.0941 51.1317 38.394 51.0129 38.7185 50.9474C39.043 50.8859 39.3594 50.8532 39.6593 50.8532H40.107V50.5541C40.107 50.0216 40.0043 49.6324 39.7989 49.3948C39.5935 49.1572 39.3224 49.0343 38.9773 49.0343C38.7226 49.0343 38.4885 49.0958 38.2707 49.2228C38.053 49.3498 37.8681 49.5177 37.712 49.7266L37.1287 49.0056C37.3546 48.6984 37.6504 48.4608 38.0119 48.2929C38.3734 48.1249 38.7349 48.043 39.0882 48.043C39.4785 48.043 39.8071 48.1044 40.0742 48.2314C40.3412 48.3584 40.5589 48.5427 40.7191 48.7885C40.8835 49.0343 40.9985 49.3334 41.0683 49.6898C41.1382 50.0462 41.171 50.4517 41.171 50.9064V53.6634C41.171 53.8969 41.1792 54.1549 41.1998 54.4294C41.2162 54.7039 41.2409 54.9251 41.2655 55.089H40.3124V55.0808Z" fill="#F0F0F0"/>
<path d="M44.3017 44.8203H43.1309V55.082H44.3017V44.8203Z" fill="#F0F0F0"/>
<path d="M52.507 51.682C52.507 51.3133 52.4782 50.9692 52.4248 50.6455C52.3714 50.326 52.2852 50.0474 52.1742 49.8139C52.0592 49.5804 51.9236 49.3961 51.7593 49.2568C51.595 49.1216 51.406 49.052 51.1883 49.052C50.9706 49.052 50.7693 49.1216 50.6091 49.2568C50.4489 49.392 50.3174 49.5763 50.2147 49.8139C50.1079 50.0474 50.0339 50.326 49.9846 50.6455C49.9353 50.9651 49.9107 51.3133 49.9107 51.682C49.9107 52.0506 49.9353 52.3947 49.9846 52.7102C50.0339 53.0256 50.112 53.3001 50.2147 53.5377C50.3174 53.7712 50.4489 53.9555 50.6091 54.0948C50.7693 54.23 50.9624 54.2955 51.1883 54.2955C51.4142 54.2955 51.5991 54.23 51.7675 54.0948C51.936 53.9596 52.0756 53.7753 52.1825 53.5377C52.2934 53.3042 52.3714 53.0297 52.4289 52.7102C52.4823 52.3947 52.5111 52.0506 52.5111 51.682M52.507 55.082V54.0088H52.4782C52.3673 54.3815 52.1948 54.6888 51.9524 54.9387C51.71 55.1886 51.3567 55.3115 50.8843 55.3115C50.5392 55.3115 50.2311 55.2172 49.96 55.0329C49.6889 54.8485 49.4588 54.5905 49.2739 54.2668C49.0891 53.9432 48.9494 53.5541 48.8508 53.1075C48.7563 52.661 48.707 52.1694 48.707 51.6328C48.707 51.0962 48.7522 50.6251 48.8426 50.1867C48.933 49.7484 49.0727 49.3674 49.2575 49.0479C49.4424 48.7284 49.6724 48.4785 49.9436 48.3023C50.2147 48.1262 50.5269 48.0361 50.8843 48.0361C51.2828 48.0361 51.6196 48.1508 51.8908 48.3761C52.1619 48.6014 52.3468 48.8922 52.4495 49.2445H52.4782V44.8203H53.6367V55.082H52.507Z" fill="#F0F0F0"/>
<path d="M58.9727 51.0381C58.9727 50.4441 58.8782 49.9648 58.6934 49.6002C58.5085 49.2356 58.2127 49.0554 57.8142 49.0554C57.576 49.0554 57.3829 49.125 57.2227 49.2643C57.0625 49.4036 56.9351 49.5756 56.8365 49.7764C56.7379 49.9771 56.664 50.1942 56.6188 50.4236C56.5736 50.653 56.549 50.8578 56.549 51.0381H58.9727ZM56.5202 51.9762C56.5202 52.3039 56.549 52.6111 56.6106 52.8897C56.6681 53.1724 56.7544 53.4182 56.8694 53.6271C56.9844 53.836 57.1241 53.9999 57.2966 54.1187C57.4692 54.2374 57.6705 54.2948 57.8964 54.2948C58.2045 54.2948 58.451 54.2006 58.6317 54.008C58.8125 53.8196 58.9604 53.5943 59.0672 53.328L59.9381 53.8319C59.7574 54.2661 59.4944 54.6184 59.1535 54.897C58.8125 55.1755 58.3812 55.3107 57.8553 55.3107C57.0748 55.3107 56.4627 54.9912 56.019 54.3521C55.5753 53.7131 55.3535 52.8242 55.3535 51.6853C55.3535 51.1405 55.411 50.6448 55.5302 50.1983C55.6493 49.7518 55.8177 49.3667 56.0354 49.0431C56.2532 48.7236 56.5161 48.4737 56.8242 48.2975C57.1323 48.1214 57.4733 48.0312 57.843 48.0312C58.262 48.0312 58.6153 48.1173 58.907 48.2975C59.1987 48.4737 59.4369 48.7154 59.6218 49.0185C59.8067 49.3216 59.9422 49.678 60.0244 50.0918C60.1065 50.5055 60.1476 50.9439 60.1476 51.415V51.9721H56.5284L56.5202 51.9762Z" fill="#F0F0F0"/>
<path d="M62.9892 44.8203H61.8184V55.082H62.9892V44.8203Z" fill="#F0F0F0"/>
<path d="M71.252 55.081V50.7264C71.252 50.5379 71.2438 50.3413 71.2233 50.1406C71.2068 49.9398 71.1616 49.7596 71.0918 49.5957C71.022 49.4319 70.9275 49.3008 70.8001 49.2025C70.6728 49.1042 70.5002 49.0509 70.2825 49.0509C70.0935 49.0509 69.9169 49.1042 69.7526 49.2066C69.5883 49.3131 69.4486 49.4565 69.3294 49.6408C69.2103 49.8251 69.1199 50.0504 69.0583 50.3085C68.9926 50.5666 68.9638 50.8493 68.9638 51.1606V55.081H67.8054V49.989C67.8054 49.7186 67.8013 49.4237 67.793 49.1123C67.7848 48.801 67.7684 48.5184 67.752 48.2644H68.8529C68.8817 48.4897 68.9022 48.7191 68.9145 48.9444C68.9269 49.1697 68.9351 49.3377 68.9351 49.4483H68.9638C69.0912 49.0509 69.3007 48.715 69.5965 48.4446C69.8923 48.1742 70.2538 48.0391 70.6769 48.0391C71.0384 48.0391 71.3383 48.1169 71.5683 48.2685C71.7984 48.4241 71.975 48.6249 72.0983 48.8788C72.2215 49.1328 72.3037 49.4237 72.3489 49.7473C72.3941 50.075 72.4187 50.4027 72.4187 50.7387V55.081H71.2479H71.252Z" fill="#F0F0F0"/>
<path d="M74.4656 48.2706H75.6241V55.0831H74.4656V48.2706ZM75.772 46.2469C75.772 46.4722 75.7022 46.6565 75.5625 46.804C75.4228 46.9474 75.2503 47.0211 75.0531 47.0211C74.8436 47.0211 74.671 46.9474 74.5355 46.804C74.3999 46.6606 74.3301 46.4722 74.3301 46.2469C74.3301 46.0216 74.3958 45.8454 74.5355 45.698C74.671 45.5505 74.8436 45.4727 75.0531 45.4727C75.2626 45.4727 75.4351 45.5464 75.5707 45.698C75.7063 45.8495 75.7761 46.0298 75.7761 46.2469" fill="#F0F0F0"/>
<path d="M81.9098 45.7461C81.881 46.2049 81.7742 46.5572 81.5894 46.803C81.4045 47.0488 81.1621 47.1717 80.8622 47.1717C80.7061 47.1717 80.5664 47.1512 80.4391 47.102C80.3117 47.057 80.1597 46.9709 79.9749 46.844C79.7654 46.7088 79.6175 46.6227 79.5271 46.5941C79.4367 46.5613 79.3381 46.5449 79.2272 46.5449C78.9725 46.5449 78.8205 46.7538 78.763 47.1676H78.1509C78.1797 46.7293 78.2865 46.3811 78.4713 46.1271C78.6562 45.8731 78.8986 45.7461 79.1985 45.7461C79.3628 45.7461 79.5066 45.7707 79.6339 45.8198C79.7613 45.869 79.9133 45.9509 80.0981 46.0656C80.3076 46.1885 80.4596 46.2704 80.5541 46.3114C80.6486 46.3524 80.7513 46.3729 80.8622 46.3729C81.006 46.3729 81.1128 46.3237 81.1744 46.2254C81.2361 46.1271 81.2812 45.9673 81.31 45.7461H81.9098ZM81.2032 55.082V50.7274C81.2032 50.539 81.195 50.3424 81.1744 50.1416C81.1539 49.9409 81.1128 49.7607 81.043 49.5968C80.9731 49.4329 80.8787 49.3019 80.7513 49.2035C80.624 49.1052 80.4514 49.052 80.2337 49.052C80.0447 49.052 79.8681 49.1052 79.7037 49.2076C79.5394 49.3101 79.3998 49.4575 79.2806 49.6419C79.1615 49.8262 79.0711 50.0515 79.0095 50.3096C78.9479 50.5677 78.915 50.8503 78.915 51.1617V55.082H77.7565V49.9901C77.7565 49.7197 77.7524 49.4248 77.7442 49.1134C77.736 48.8021 77.7196 48.5194 77.7031 48.2654H78.8041C78.8328 48.4908 78.8534 48.7202 78.8657 48.9455C78.878 49.1708 78.8862 49.3387 78.8862 49.4493H78.915C79.0424 49.052 79.2519 48.7161 79.5476 48.4457C79.8434 48.1753 80.2049 48.0401 80.6281 48.0401C80.9896 48.0401 81.2895 48.118 81.5195 48.2695C81.7496 48.4252 81.9262 48.6259 82.0495 48.8799C82.1727 49.1339 82.2549 49.4248 82.3 49.7484C82.3452 50.0761 82.3699 50.4038 82.3699 50.7397V55.082H81.1991H81.2032Z" fill="#F0F0F0"/>
<path d="M87.8042 51.681C87.8042 51.3124 87.7796 50.9682 87.7303 50.6446C87.681 50.3251 87.5988 50.0465 87.492 49.813C87.3811 49.5795 87.2455 49.3952 87.0853 49.26C86.921 49.1248 86.732 49.0552 86.5143 49.0552C86.2965 49.0552 86.1076 49.1207 85.9433 49.26C85.7789 49.3952 85.6475 49.5795 85.5407 49.813C85.438 50.0465 85.3599 50.3251 85.3106 50.6446C85.2613 50.9642 85.2367 51.3083 85.2367 51.681C85.2367 52.0538 85.2613 52.3938 85.3106 52.7093C85.3599 53.0247 85.438 53.2992 85.5407 53.5368C85.6434 53.7703 85.7789 53.9546 85.9433 54.0898C86.1076 54.225 86.2965 54.2946 86.5143 54.2946C86.732 54.2946 86.9374 54.2291 87.0976 54.0898C87.2619 53.9546 87.3934 53.7703 87.5002 53.5368C87.6029 53.3033 87.681 53.0288 87.7303 52.7093C87.7796 52.3938 87.8042 52.0497 87.8042 51.681ZM88.9997 51.6892C88.9997 52.2341 88.9421 52.7256 88.8312 53.1681C88.7162 53.6105 88.556 53.9915 88.3424 54.3069C88.1287 54.6223 87.8699 54.8722 87.5618 55.0484C87.2537 55.2245 86.9045 55.3146 86.5143 55.3146C86.124 55.3146 85.7871 55.2286 85.479 55.0484C85.1709 54.8681 84.908 54.6264 84.6944 54.3069C84.4808 53.9915 84.3165 53.6105 84.2055 53.1681C84.0905 52.7256 84.0371 52.23 84.0371 51.6892C84.0371 51.1485 84.0946 50.6487 84.2055 50.1981C84.3206 49.7475 84.4808 49.3624 84.6903 49.0429C84.8998 48.7275 85.1586 48.4776 85.4667 48.3014C85.7748 48.1253 86.124 48.0352 86.5143 48.0352C86.9045 48.0352 87.2537 48.1253 87.5618 48.3014C87.8699 48.4776 88.1328 48.7234 88.3424 49.0429C88.556 49.3583 88.7203 49.7434 88.8312 50.1981C88.9462 50.6528 88.9997 51.1485 88.9997 51.6892Z" fill="#F0F0F0"/>
<path d="M95.4941 55.3145C95.0874 55.3145 94.7259 55.2243 94.4178 55.0482C94.1097 54.872 93.8509 54.6221 93.6496 54.3026C93.4442 53.9831 93.2922 53.598 93.1854 53.1556C93.0786 52.7132 93.0293 52.2175 93.0293 51.6768C93.0293 51.136 93.0827 50.6403 93.1854 50.1979C93.2881 49.7555 93.4442 49.3704 93.6537 49.0509C93.8632 48.7314 94.122 48.4815 94.4301 48.3053C94.7383 48.1292 95.0957 48.0391 95.5065 48.0391C95.868 48.0391 96.1761 48.1005 96.4267 48.2234C96.6773 48.3463 96.8744 48.4774 97.0182 48.6249L96.4349 49.4933C96.324 49.3622 96.2007 49.2557 96.0528 49.1779C95.909 49.1001 95.7324 49.0591 95.5229 49.0591C95.3134 49.0591 95.1162 49.1246 94.9519 49.2557C94.7876 49.3868 94.6561 49.5712 94.5493 49.8006C94.4466 50.0341 94.3644 50.3044 94.311 50.624C94.2576 50.9435 94.2289 51.2917 94.2289 51.6727C94.2289 52.0536 94.2535 52.4018 94.3028 52.7132C94.3521 53.0245 94.4301 53.2949 94.5411 53.5243C94.652 53.7496 94.7917 53.9298 94.9642 54.0568C95.1367 54.1838 95.3462 54.2453 95.5886 54.2453C95.7981 54.2453 95.9748 54.2043 96.1268 54.1224C96.2747 54.0404 96.4061 53.9339 96.5129 53.7987L97.0306 54.6959C96.6567 55.1096 96.1473 55.3185 95.4941 55.3185" fill="#F0F0F0"/>
<path d="M101.591 51.681C101.591 51.3124 101.566 50.9682 101.517 50.6446C101.468 50.3251 101.386 50.0465 101.279 49.813C101.168 49.5795 101.032 49.3952 100.872 49.26C100.708 49.1248 100.519 49.0552 100.301 49.0552C100.083 49.0552 99.8945 49.1207 99.7302 49.26C99.5658 49.3952 99.4344 49.5795 99.3276 49.813C99.2249 50.0465 99.1468 50.3251 99.0975 50.6446C99.0482 50.9642 99.0236 51.3083 99.0236 51.681C99.0236 52.0538 99.0482 52.3938 99.0975 52.7093C99.1468 53.0247 99.2249 53.2992 99.3276 53.5368C99.4303 53.7703 99.5658 53.9546 99.7302 54.0898C99.8945 54.225 100.083 54.2946 100.301 54.2946C100.519 54.2946 100.724 54.2291 100.885 54.0898C101.049 53.9546 101.18 53.7703 101.287 53.5368C101.39 53.3033 101.468 53.0288 101.517 52.7093C101.566 52.3938 101.591 52.0497 101.591 51.681ZM102.791 51.6892C102.791 52.2341 102.733 52.7256 102.622 53.1681C102.507 53.6105 102.347 53.9915 102.133 54.3069C101.92 54.6223 101.661 54.8722 101.353 55.0484C101.045 55.2245 100.696 55.3146 100.305 55.3146C99.915 55.3146 99.5782 55.2286 99.2701 55.0484C98.9619 54.8681 98.699 54.6264 98.4854 54.3069C98.2718 53.9915 98.1075 53.6105 97.9966 53.1681C97.8815 52.7256 97.8281 52.23 97.8281 51.6892C97.8281 51.1485 97.8856 50.6487 97.9966 50.1981C98.1116 49.7475 98.2718 49.3624 98.4813 49.0429C98.6908 48.7275 98.9496 48.4776 99.2577 48.3014C99.5658 48.1253 99.915 48.0352 100.305 48.0352C100.696 48.0352 101.045 48.1253 101.353 48.3014C101.661 48.4776 101.924 48.7234 102.133 49.0429C102.347 49.3583 102.511 49.7434 102.622 50.1981C102.737 50.6528 102.791 51.1485 102.791 51.6892Z" fill="#F0F0F0"/>
<path d="M107.975 55.081V50.7264C107.975 50.5379 107.966 50.3413 107.946 50.1406C107.929 49.9398 107.884 49.7596 107.814 49.5957C107.745 49.4319 107.65 49.3008 107.523 49.2025C107.395 49.1042 107.223 49.0509 107.005 49.0509C106.816 49.0509 106.64 49.1042 106.475 49.2066C106.311 49.309 106.171 49.4565 106.052 49.6408C105.933 49.8251 105.843 50.0504 105.781 50.3085C105.715 50.5666 105.686 50.8493 105.686 51.1606V55.081H104.528V49.989C104.528 49.7186 104.524 49.4237 104.516 49.1123C104.507 48.801 104.491 48.5184 104.475 48.2644H105.576C105.604 48.4897 105.625 48.7191 105.637 48.9444C105.65 49.1697 105.658 49.3377 105.658 49.4483H105.686C105.814 49.0509 106.023 48.715 106.319 48.4446C106.615 48.1742 106.976 48.0391 107.4 48.0391C107.761 48.0391 108.061 48.1169 108.291 48.2685C108.521 48.4241 108.698 48.6249 108.821 48.8788C108.944 49.1328 109.026 49.4237 109.072 49.7473C109.117 50.075 109.141 50.4027 109.141 50.7387V55.081H107.971H107.975Z" fill="#F0F0F0"/>
<path d="M117.288 48.2693H118.447V55.0817H117.288V48.2693ZM118.595 46.2456C118.595 46.4709 118.525 46.6593 118.385 46.8027C118.246 46.9461 118.073 47.0198 117.876 47.0198C117.666 47.0198 117.494 46.9461 117.358 46.8027C117.223 46.6593 117.153 46.4709 117.153 46.2456C117.153 46.0203 117.223 45.8441 117.358 45.6967C117.494 45.5492 117.666 45.4714 117.876 45.4714C118.085 45.4714 118.258 45.5451 118.394 45.6967C118.529 45.8441 118.599 46.0285 118.599 46.2456M116.401 45.6229C116.282 45.5779 116.151 45.5533 116.007 45.5533C115.826 45.5533 115.674 45.5983 115.559 45.6844C115.44 45.7704 115.349 45.881 115.28 46.0162C115.214 46.1514 115.165 46.307 115.136 46.4832C115.107 46.6593 115.095 46.8437 115.095 47.0321V48.2693H116.212V49.2074H115.111V55.0858H113.969V49.2074H113.086V48.2693H113.969V47.0198C113.969 46.6675 114.006 46.3398 114.076 46.0408C114.15 45.7417 114.261 45.4836 114.417 45.2665C114.573 45.0494 114.77 44.8774 115.009 44.7586C115.251 44.6357 115.538 44.5742 115.871 44.5742C115.97 44.5742 116.077 44.5824 116.183 44.5947C116.29 44.607 116.393 44.6357 116.483 44.6684L116.401 45.6188V45.6229Z" fill="#F0F0F0"/>
<path d="M123.262 49.5583C123.143 49.3862 122.991 49.2429 122.806 49.1323C122.621 49.0176 122.399 48.9643 122.145 48.9643C121.89 48.9643 121.664 49.0585 121.491 49.2429C121.319 49.4272 121.233 49.6812 121.233 49.9966C121.233 50.3121 121.323 50.5455 121.5 50.6889C121.676 50.8323 121.947 50.9757 122.309 51.1109C122.498 51.1846 122.687 51.2706 122.876 51.3771C123.061 51.4796 123.229 51.6147 123.381 51.7786C123.529 51.9425 123.652 52.135 123.743 52.3562C123.833 52.5774 123.878 52.8437 123.878 53.1509C123.878 53.5032 123.825 53.8146 123.722 54.089C123.619 54.3594 123.472 54.5847 123.287 54.769C123.102 54.9493 122.88 55.0886 122.625 55.1828C122.371 55.277 122.095 55.3262 121.795 55.3262C121.389 55.3262 121.015 55.2401 120.678 55.0763C120.341 54.9083 120.062 54.683 119.836 54.4045L120.518 53.6589C120.674 53.8473 120.855 54.0153 121.064 54.1546C121.274 54.2938 121.533 54.3635 121.841 54.3635C122.132 54.3635 122.358 54.2611 122.527 54.0522C122.695 53.8432 122.777 53.5729 122.777 53.237C122.777 53.0485 122.744 52.8847 122.683 52.7495C122.617 52.6143 122.535 52.4996 122.424 52.4013C122.313 52.307 122.186 52.2251 122.034 52.1555C121.886 52.0858 121.722 52.0203 121.549 51.9588C121.376 51.8974 121.208 51.8196 121.04 51.7294C120.871 51.6393 120.719 51.5205 120.584 51.3689C120.448 51.2215 120.337 51.0371 120.259 50.8241C120.177 50.6111 120.136 50.353 120.136 50.0458C120.136 49.7385 120.189 49.4764 120.292 49.2306C120.395 48.9848 120.538 48.7759 120.719 48.5997C120.9 48.4236 121.114 48.2884 121.36 48.1942C121.607 48.0999 121.869 48.0508 122.149 48.0508C122.555 48.0508 122.909 48.1204 123.205 48.2597C123.5 48.399 123.743 48.5833 123.932 48.8086L123.266 49.5665L123.262 49.5583Z" fill="#F0F0F0"/>
<path d="M126.583 48.2812V52.6235C126.583 52.812 126.591 53.0086 126.612 53.2052C126.628 53.406 126.673 53.5862 126.743 53.7501C126.813 53.9139 126.907 54.045 127.035 54.1433C127.162 54.2417 127.335 54.2908 127.552 54.2908C127.741 54.2908 127.918 54.2376 128.082 54.1351C128.247 54.0327 128.386 53.8853 128.505 53.7009C128.625 53.5166 128.715 53.2954 128.777 53.0373C128.838 52.7792 128.871 52.4966 128.871 52.1893V48.2812H130.03V53.3732C130.03 53.6436 130.034 53.9344 130.042 54.2458C130.05 54.5571 130.062 54.8357 130.083 55.0855H128.982C128.953 54.8602 128.933 54.6349 128.92 54.4055C128.908 54.1802 128.9 54.0123 128.9 53.9017H128.871C128.744 54.299 128.534 54.6349 128.238 54.9053C127.943 55.1757 127.581 55.3108 127.158 55.3108C126.784 55.3108 126.484 55.2371 126.258 55.0814C126.032 54.9299 125.856 54.7291 125.733 54.4793C125.609 54.2294 125.527 53.9385 125.482 53.6149C125.437 53.2913 125.412 52.9595 125.412 52.6235V48.2812H126.583Z" fill="#F0F0F0"/>
<path d="M133.91 48.4323C134.173 48.1702 134.477 48.0391 134.822 48.0391C134.896 48.0391 134.949 48.0432 134.986 48.0514L134.933 49.2598C134.896 49.2516 134.859 49.2434 134.826 49.2393C134.789 49.2352 134.748 49.2311 134.703 49.2311C134.485 49.2311 134.292 49.3008 134.123 49.4401C133.955 49.5793 133.815 49.7637 133.7 49.989C133.585 50.2143 133.499 50.4724 133.442 50.755C133.384 51.0418 133.351 51.3327 133.351 51.6317V55.081H132.18V49.9931C132.18 49.7227 132.176 49.4278 132.168 49.1164C132.16 48.8051 132.143 48.5225 132.127 48.2685H133.228C133.257 48.4938 133.277 48.7314 133.29 48.9731C133.302 49.2189 133.31 49.4524 133.31 49.6777H133.339C133.458 49.1082 133.647 48.6904 133.91 48.4282" fill="#F0F0F0"/>
<path d="M138.824 51.7298H138.318C138.109 51.7298 137.907 51.7503 137.714 51.7831C137.517 51.8199 137.345 51.8896 137.188 51.992C137.032 52.0944 136.909 52.2378 136.815 52.418C136.72 52.5983 136.671 52.8318 136.671 53.1103C136.671 53.5282 136.761 53.8313 136.942 54.028C137.123 54.2246 137.332 54.3188 137.566 54.3188C137.801 54.3188 137.998 54.2492 138.158 54.1099C138.318 53.9706 138.446 53.7904 138.544 53.5732C138.643 53.3561 138.713 53.1185 138.754 52.8605C138.795 52.6024 138.815 52.3566 138.815 52.119V51.7257L138.824 51.7298ZM139 55.0808C138.963 54.8718 138.939 54.6629 138.918 54.4581C138.902 54.2492 138.889 54.0812 138.889 53.9542H138.86C138.762 54.3598 138.581 54.6793 138.322 54.9128C138.064 55.1422 137.706 55.261 137.254 55.261C137.065 55.261 136.868 55.2241 136.667 55.1545C136.465 55.0808 136.289 54.9661 136.129 54.8022C135.968 54.6383 135.837 54.4294 135.734 54.1795C135.632 53.9255 135.578 53.6142 135.578 53.2414C135.578 52.7539 135.669 52.3525 135.845 52.0412C136.022 51.7298 136.244 51.484 136.511 51.3079C136.778 51.1317 137.078 51.0129 137.402 50.9474C137.731 50.8859 138.043 50.8532 138.343 50.8532H138.791V50.5541C138.791 50.0216 138.688 49.6324 138.483 49.3948C138.277 49.1572 138.006 49.0343 137.661 49.0343C137.406 49.0343 137.172 49.0958 136.954 49.2228C136.737 49.3498 136.552 49.5177 136.396 49.7266L135.812 49.0056C136.038 48.6984 136.334 48.4608 136.696 48.2929C137.057 48.1249 137.419 48.043 137.772 48.043C138.162 48.043 138.491 48.1044 138.758 48.2314C139.025 48.3584 139.243 48.5427 139.403 48.7885C139.567 49.0343 139.682 49.3334 139.748 49.6898C139.818 50.0462 139.851 50.4517 139.851 50.9064V53.6634C139.851 53.8969 139.859 54.1549 139.879 54.4294C139.896 54.7039 139.92 54.9251 139.949 55.089H138.996L139 55.0808Z" fill="#F0F0F0"/>
<path d="M28.2173 29.9888H40.9071C41.3056 29.9888 41.6671 29.743 41.8109 29.3702C42.1971 28.3707 42.5093 27.3383 42.7434 26.2732C42.8297 25.8718 42.5257 25.4949 42.1149 25.4949H29.6716L30.9328 21.5909C31.0601 21.1936 31.434 20.9232 31.853 20.9232H42.2094C42.7763 20.9232 43.22 20.4439 43.1748 19.8786C42.2792 8.78938 32.9416 0.0351562 21.591 0.0351562C10.2405 0.0351562 0.902835 8.78938 0.0031699 19.8827C-0.0420188 20.4439 0.401652 20.9273 0.968564 20.9273H25.2554C25.6909 20.9273 26.0031 21.3533 25.8675 21.7671L24.6598 25.499H1.06716C0.656352 25.499 0.348247 25.88 0.438624 26.2773C0.672784 27.3424 0.984997 28.3747 1.37115 29.3743C1.51494 29.7471 1.87234 29.9929 2.27493 29.9929H23.2096L21.9567 33.8682C21.8293 34.2655 21.4555 34.5359 21.0364 34.5359H4.88766C4.61652 34.5359 4.46863 34.8472 4.63706 35.0602C5.40116 36.0147 6.24332 36.9078 7.15531 37.7189C8.10016 38.5627 9.32436 39.0297 10.5938 39.0297H32.5883C33.8577 39.0297 35.0819 38.5627 36.0268 37.7189C36.9388 36.9037 37.7809 36.0147 38.545 35.0602C38.7134 34.8472 38.5655 34.5359 38.2944 34.5359H27.634C27.1985 34.5359 26.8863 34.1098 27.0219 33.6961L28.2214 29.9929L28.2173 29.9888Z" fill="#F0F0F0"/>
<path d="M62.1754 39.1047C61.0539 39.3791 59.8338 39.5143 58.511 39.5143C57.1389 39.5143 55.8777 39.2972 54.7275 38.863C53.5731 38.4287 52.583 37.8184 51.7532 37.0277C50.9234 36.2412 50.2743 35.2949 49.806 34.193C49.3377 33.091 49.1035 31.8662 49.1035 30.5143C49.1035 29.1461 49.3418 27.9089 49.8183 26.7988C50.2949 25.6886 50.9521 24.7464 51.7902 23.964C52.6282 23.1857 53.6142 22.5876 54.7398 22.1697C55.8695 21.7519 57.0855 21.543 58.3918 21.543C59.7475 21.543 61.0046 21.7478 62.163 22.1615C63.3256 22.5712 64.2664 23.1242 64.9935 23.8165L62.3808 26.7824C61.9782 26.3154 61.4441 25.9344 60.7827 25.6354C60.1213 25.3363 59.3737 25.1889 58.5315 25.1889C57.8044 25.1889 57.1389 25.3199 56.5227 25.5862C55.9065 25.8525 55.3765 26.2212 54.9246 26.6964C54.4728 27.1716 54.1236 27.7328 53.873 28.3841C53.6224 29.0355 53.4991 29.7483 53.4991 30.5184C53.4991 31.3049 53.6101 32.03 53.836 32.6896C54.0619 33.3491 54.3947 33.9144 54.8384 34.3896C55.282 34.8648 55.8284 35.2335 56.4816 35.4998C57.1348 35.766 57.8783 35.8971 58.7205 35.8971C59.2052 35.8971 59.6653 35.8602 60.1008 35.7906C60.5363 35.7169 60.9388 35.6022 61.3127 35.4424V32.3291H58.0468V29.0027H65.1126V38.0478C64.2705 38.482 63.2928 38.8343 62.1713 39.1088" fill="#F0F0F0"/>
<path d="M77.5984 26.5709L75.4211 32.433H79.7264L77.5984 26.5709ZM82.1912 39.0898L80.8602 35.7389H74.2339L72.9768 39.0898H68.4785L75.6676 22.0156H79.6812L86.7881 39.098H82.1912V39.0898Z" fill="#F0F0F0"/>
<path d="M101.179 39.0939L94.2901 27.9269H94.2162L94.3107 39.0939L90.293 39.0898L90.3012 22.0156H95.0172L101.882 33.1622H101.956L101.861 22.0197H105.875L105.871 39.098L101.179 39.0939Z" fill="#F0F0F0"/>
<path d="M118.816 25.5466L118.812 39.1019L114.675 39.0978L114.679 25.5425H109.844V22.0195L123.655 22.0236V25.5466H118.816Z" fill="#F0F0F0"/>
<path d="M126.506 39.1017V35.5255L134.66 25.5014L126.703 25.4973V22.0234L139.837 22.0275V25.3334L131.489 35.5337L140.001 35.5378V39.1058L126.506 39.1017Z" fill="#F0F0F0"/>
<path d="M125.02 1.90897L122.871 1.90487L124.095 0H126.548L125.02 1.90897Z" fill="#F0F0F0"/>
</svg>
