<svg width="688" height="375" viewBox="0 0 688 375" fill="none" xmlns="http://www.w3.org/2000/svg">
<path opacity="0.1" d="M2.31152 82.008C-24.795 128.005 -113.307 202.499 -154.175 233.996L-205 16.043C-116.131 -28.3796 58.2888 -88.077 110.203 -66.4137C141.857 -53.2046 170.066 -42.3935 173.957 23.9035C177.523 84.6822 148.017 97.4459 156.123 109.197C168.071 126.516 193.315 95.9239 239.048 86.7488C346.493 65.1927 419.164 109.197 518.584 198.339C598.12 269.653 664.668 435.16 688 509H285.86C288.684 504.097 288.446 461.309 264.906 329.378C235.481 164.465 196.694 160.008 156.123 179.173C123.667 194.506 86.5048 191.97 72.307 179.173C51.353 160.288 48.4105 127.309 68.7404 95.2173C94.1528 55.1033 79.8862 35.492 72.307 31.4806C62.0529 26.0534 36.1947 24.5112 2.31152 82.008Z" fill="#2E3E80"/>
</svg>
