<svg width="16" height="18" viewBox="0 0 16 18" fill="none" xmlns="http://www.w3.org/2000/svg">
<path d="M8.08751 0.0147736C9.05489 5.61365e-08 10.0152 0.00768225 10.9749 0C11.0068 1.2002 11.4937 2.28045 12.2684 3.08058L12.2672 3.0794C13.1011 3.83049 14.186 4.31743 15.3821 4.40016L15.3987 4.40134V7.37733C14.2688 7.34896 13.2063 7.08836 12.2483 6.64042L12.2968 6.66051C11.8335 6.43773 11.4417 6.20903 11.0694 5.95375L11.1001 5.97384C11.093 8.13019 11.1072 10.2865 11.0854 12.4352C11.0245 13.5302 10.6605 14.5289 10.0766 15.3627L10.0884 15.3444C9.11221 16.7426 7.53085 17.6603 5.73261 17.7147H5.72434C5.65165 17.7182 5.56596 17.72 5.47969 17.72C4.45736 17.72 3.5018 17.4352 2.68748 16.9405L2.71112 16.9541C1.22904 16.0624 0.206707 14.5366 0.0176052 12.762L0.0152415 12.7378C0.00046791 12.3684 -0.00662345 11.9991 0.00815011 11.6374C0.297712 8.81332 2.66385 6.6286 5.53996 6.6286C5.86321 6.6286 6.17995 6.65638 6.48783 6.70897L6.45474 6.70424C6.46951 7.79689 6.42519 8.89014 6.42519 9.98279C6.17523 9.89238 5.88685 9.83978 5.58606 9.83978C4.48218 9.83978 3.54317 10.5454 3.19569 11.5305L3.19038 11.5482C3.11178 11.8005 3.06628 12.0907 3.06628 12.3909C3.06628 12.5126 3.07396 12.6332 3.08814 12.7514L3.08696 12.7372C3.28315 13.9462 4.31967 14.8587 5.56951 14.8587C5.60556 14.8587 5.64101 14.8581 5.67647 14.8563H5.67115C6.5357 14.8303 7.2862 14.3652 7.71049 13.678L7.7164 13.6673C7.87418 13.4475 7.98233 13.1816 8.01837 12.8926L8.01897 12.8843C8.09283 11.5624 8.06329 10.2481 8.07038 8.92619C8.07747 5.9502 8.06329 2.9813 8.08515 0.0130008L8.08751 0.0147736Z" fill="#F0F0F0"/>
</svg>
