<svg width="250" height="169" viewBox="0 0 250 169" fill="none" xmlns="http://www.w3.org/2000/svg">
<path d="M219.497 116.646C193.346 159.201 118.139 172.313 89.3561 167.984C44.2666 167.984 11.0268 138.576 15.3376 116.646C21.8854 83.3354 40.7485 85.1163 95.6418 72.1271C150.535 59.138 155.352 9.64018 189.892 15.8255C224.432 22.0108 252.187 63.4524 219.497 116.646Z" fill="#C3C8DD"/>
<path fill-rule="evenodd" clip-rule="evenodd" d="M57.9151 48.2625C50.9848 48.2625 45.3668 53.8806 45.3668 60.8108V73.2546C55.093 68.6914 62.1346 59.3551 63.4749 48.2625H57.9151ZM192.356 145.753H198.842C205.772 145.753 211.39 140.135 211.39 133.205V100.394C204.679 102.121 198.851 106.047 194.719 111.358C194.32 110.575 193.506 110.039 192.568 110.039H63.2239C61.8912 110.039 60.8108 111.119 60.8108 112.452C60.8108 113.784 61.8912 114.865 63.2239 114.865H192.356C190.812 117.534 189.656 120.455 188.965 123.552H63.2239C61.8912 123.552 60.8108 124.633 60.8108 125.965C60.8108 127.298 61.8912 128.378 63.2239 128.378H188.283C188.244 129.017 188.224 129.661 188.224 130.309C188.224 135.935 189.728 141.21 192.356 145.753Z" fill="#2E3E80"/>
<path d="M192.568 110.039C193.506 110.039 194.32 110.575 194.719 111.358C194.886 111.686 194.981 112.058 194.981 112.452C194.981 113.784 193.9 114.865 192.568 114.865H192.356H63.2239C61.8912 114.865 60.8108 113.784 60.8108 112.452C60.8108 111.119 61.8912 110.039 63.2239 110.039H192.568Z" fill="#F0F0F0"/>
<path d="M192.568 123.552C193.9 123.552 194.981 124.633 194.981 125.965C194.981 127.298 193.9 128.378 192.568 128.378H188.283H63.2239C61.8912 128.378 60.8108 127.298 60.8108 125.965C60.8108 124.633 61.8912 123.552 63.2239 123.552H188.965H192.568Z" fill="#F0F0F0"/>
<path d="M63.7066 44.4015C63.7066 45.7084 63.6279 46.9969 63.4749 48.2625C62.1346 59.3551 55.093 68.6914 45.3668 73.2546C41.2644 75.1793 36.6844 76.2548 31.8533 76.2548C14.2612 76.2548 0 61.9936 0 44.4015C0 26.8095 14.2612 12.5483 31.8533 12.5483C49.4454 12.5483 63.7066 26.8095 63.7066 44.4015Z" fill="#F0F0F0"/>
<path d="M57.9151 44.4015C57.9151 30.008 46.2468 18.3398 31.8533 18.3398C17.4598 18.3398 5.79151 30.008 5.79151 44.4015C5.79151 58.7951 17.4598 70.4633 31.8533 70.4633V76.2548C14.2612 76.2548 0 61.9936 0 44.4015C0 26.8095 14.2612 12.5483 31.8533 12.5483C49.4454 12.5483 63.7066 26.8095 63.7066 44.4015C63.7066 45.7084 63.6279 46.9969 63.4749 48.2625C62.1346 59.3551 55.093 68.6914 45.3668 73.2546C41.2644 75.1793 36.6844 76.2548 31.8533 76.2548V70.4633C46.2468 70.4633 57.9151 58.7951 57.9151 44.4015Z" fill="#2E3E80"/>
<path d="M43.1778 34.9732C44.1202 34.0308 45.6478 34.0308 46.5901 34.9732C47.5325 35.9156 47.5325 37.4431 46.5901 38.3855L28.733 56.2426C27.7906 57.185 26.2631 57.185 25.3207 56.2426L17.5987 48.5206C16.6563 47.5783 16.6563 46.0507 17.5987 45.1083C18.5411 44.1659 20.0686 44.1659 21.011 45.1083L27.0268 51.1242L43.1778 34.9732Z" fill="#2E3E80"/>
<path d="M250 130.309C250 147.368 236.171 161.197 219.112 161.197C207.679 161.197 197.697 154.985 192.356 145.753C189.728 141.21 188.224 135.935 188.224 130.309C188.224 129.661 188.244 129.017 188.283 128.378C188.385 126.731 188.615 125.119 188.965 123.552C189.656 120.455 190.812 117.534 192.356 114.865C193.065 113.64 193.855 112.469 194.719 111.358C198.851 106.047 204.679 102.121 211.39 100.394C213.858 99.7587 216.446 99.4208 219.112 99.4208C236.171 99.4208 250 113.25 250 130.309Z" fill="#F0F0F0"/>
<path d="M244.208 130.309C244.208 116.448 232.972 105.212 219.112 105.212C205.252 105.212 194.015 116.448 194.015 130.309C194.015 144.169 205.252 155.405 219.112 155.405V161.197C207.679 161.197 197.697 154.985 192.356 145.753C189.728 141.21 188.224 135.935 188.224 130.309C188.224 129.661 188.244 129.017 188.283 128.378C188.385 126.731 188.615 125.119 188.965 123.552C189.656 120.455 190.812 117.534 192.356 114.865C193.065 113.64 193.855 112.469 194.719 111.358C198.851 106.047 204.679 102.121 211.39 100.394C213.858 99.7587 216.446 99.4208 219.112 99.4208C236.171 99.4208 250 113.25 250 130.309C250 147.368 236.171 161.197 219.112 161.197V155.405C232.972 155.405 244.208 144.169 244.208 130.309Z" fill="#2E3E80"/>
<path d="M219.112 144.788C225.243 144.788 230.212 139.818 230.212 133.687H208.012C208.012 139.818 212.981 144.788 219.112 144.788Z" fill="#2E3E80"/>
<path d="M213.32 122.587C213.32 124.719 212.024 126.448 210.425 126.448C208.825 126.448 207.529 124.719 207.529 122.587C207.529 120.454 208.825 118.726 210.425 118.726C212.024 118.726 213.32 120.454 213.32 122.587Z" fill="#2E3E80"/>
<path d="M229.73 122.587C229.73 124.719 228.433 126.448 226.834 126.448C225.235 126.448 223.938 124.719 223.938 122.587C223.938 120.454 225.235 118.726 226.834 118.726C228.433 118.726 229.73 120.454 229.73 122.587Z" fill="#2E3E80"/>
<path d="M198.842 48.2625H63.4749C62.1346 59.3551 55.093 68.6914 45.3668 73.2546V133.205C45.3668 140.135 50.9848 145.753 57.9151 145.753H131.815L180.043 164.891C182.578 165.897 185.328 164.029 185.328 161.302V145.753H192.356C189.728 141.21 188.224 135.935 188.224 130.309C188.224 129.661 188.244 129.017 188.283 128.378H63.2239C61.8912 128.378 60.8108 127.298 60.8108 125.965C60.8108 124.633 61.8912 123.552 63.2239 123.552H188.965C189.656 120.455 190.812 117.534 192.356 114.865H63.2239C61.8912 114.865 60.8108 113.784 60.8108 112.452C60.8108 111.119 61.8912 110.039 63.2239 110.039H192.568C193.506 110.039 194.32 110.575 194.719 111.358C198.851 106.047 204.679 102.121 211.39 100.394V60.8108C211.39 53.8806 205.772 48.2625 198.842 48.2625Z" fill="#2E3E80"/>
<path d="M67.6666 67.3911C68.0206 66.6737 69.0436 66.6737 69.3977 67.3911L71.428 71.505C71.5686 71.7899 71.8404 71.9874 72.1548 72.033L76.6947 72.6927C77.4865 72.8078 77.8026 73.7807 77.2297 74.3391L73.9446 77.5413C73.7171 77.7631 73.6133 78.0826 73.667 78.3957L74.4425 82.9173C74.5777 83.7058 73.7501 84.3071 73.0419 83.9349L68.9813 81.8C68.7001 81.6522 68.3642 81.6522 68.083 81.8L64.0223 83.9349C63.3142 84.3071 62.4865 83.7058 62.6218 82.9173L63.3973 78.3957C63.451 78.0826 63.3472 77.7631 63.1197 77.5413L59.8346 74.3391C59.2617 73.7807 59.5778 72.8078 60.3695 72.6927L64.9095 72.033C65.2239 71.9874 65.4956 71.7899 65.6362 71.505L67.6666 67.3911Z" fill="#FFB413"/>
<path d="M97.348 67.3911C97.7021 66.6737 98.7251 66.6737 99.0792 67.3911L101.11 71.505C101.25 71.7899 101.522 71.9874 101.836 72.033L106.376 72.6927C107.168 72.8078 107.484 73.7807 106.911 74.3391L103.626 77.5413C103.399 77.7631 103.295 78.0826 103.348 78.3957L104.124 82.9173C104.259 83.7058 103.432 84.3071 102.723 83.9349L98.6628 81.8C98.3816 81.6522 98.0456 81.6522 97.7644 81.8L93.7038 83.9349C92.9957 84.3071 92.168 83.7058 92.3033 82.9173L93.0788 78.3957C93.1325 78.0826 93.0287 77.7631 92.8012 77.5413L89.516 74.3391C88.9432 73.7807 89.2593 72.8078 90.051 72.6927L94.5909 72.033C94.9053 71.9874 95.1771 71.7899 95.3177 71.505L97.348 67.3911Z" fill="#FFB413"/>
<path d="M127.03 67.3911C127.384 66.6737 128.407 66.6737 128.761 67.3911L130.791 71.505C130.932 71.7899 131.203 71.9874 131.518 72.033L136.058 72.6927C136.849 72.8078 137.166 73.7807 136.593 74.3391L133.308 77.5413C133.08 77.7631 132.976 78.0826 133.03 78.3957L133.805 82.9173C133.941 83.7058 133.113 84.3071 132.405 83.9349L128.344 81.8C128.063 81.6522 127.727 81.6522 127.446 81.8L123.385 83.9349C122.677 84.3071 121.849 83.7058 121.985 82.9173L122.76 78.3957C122.814 78.0826 122.71 77.7631 122.483 77.5413L119.198 74.3391C118.625 73.7807 118.941 72.8078 119.732 72.6927L124.272 72.033C124.587 71.9874 124.859 71.7899 124.999 71.505L127.03 67.3911Z" fill="#FFB413"/>
<path d="M156.711 67.3911C157.065 66.6737 158.088 66.6737 158.442 67.3911L160.472 71.505C160.613 71.7899 160.885 71.9874 161.199 72.033L165.739 72.6927C166.531 72.8078 166.847 73.7807 166.274 74.3391L162.989 77.5413C162.761 77.7631 162.658 78.0826 162.711 78.3957L163.487 82.9173C163.622 83.7058 162.794 84.3071 162.086 83.9349L158.026 81.8C157.745 81.6522 157.409 81.6522 157.127 81.8L153.067 83.9349C152.359 84.3071 151.531 83.7058 151.666 82.9173L152.442 78.3957C152.495 78.0826 152.392 77.7631 152.164 77.5413L148.879 74.3391C148.306 73.7807 148.622 72.8078 149.414 72.6927L153.954 72.033C154.268 71.9874 154.54 71.7899 154.681 71.505L156.711 67.3911Z" fill="#FFB413"/>
<path d="M186.392 67.3911C186.747 66.6737 187.77 66.6737 188.124 67.3911L190.154 71.505C190.294 71.7899 190.566 71.9874 190.881 72.033L195.421 72.6927C196.212 72.8078 196.528 73.7807 195.956 74.3391L192.67 77.5413C192.443 77.7631 192.339 78.0826 192.393 78.3957L193.168 82.9173C193.304 83.7058 192.476 84.3071 191.768 83.9349L187.707 81.8C187.426 81.6522 187.09 81.6522 186.809 81.8L182.748 83.9349C182.04 84.3071 181.212 83.7058 181.348 82.9173L182.123 78.3957C182.177 78.0826 182.073 77.7631 181.846 77.5413L178.56 74.3391C177.988 73.7807 178.304 72.8078 179.095 72.6927L183.635 72.033C183.95 71.9874 184.222 71.7899 184.362 71.505L186.392 67.3911Z" fill="#FFB413"/>
<path d="M192.568 96.5251C193.9 96.5251 194.981 97.6055 194.981 98.9382C194.981 100.271 193.9 101.351 192.568 101.351H63.2239C61.8912 101.351 60.8108 100.271 60.8108 98.9382C60.8108 97.6055 61.8912 96.5251 63.2239 96.5251H192.568Z" fill="#F0F0F0"/>
<path d="M98.4556 12.5483C98.4556 5.61805 104.074 0 111.004 0H145.753C152.683 0 158.301 5.61805 158.301 12.5483V16.4093C158.301 23.3395 152.683 28.9575 145.753 28.9575H142.857V31.9834C142.857 32.4542 142.875 32.9035 142.892 33.3195C142.972 35.3075 143.021 36.5356 140.927 35.7143L121.849 28.9575H111.004C104.074 28.9575 98.4556 23.3395 98.4556 16.4093V12.5483Z" fill="#2E3E80"/>
<path fill-rule="evenodd" clip-rule="evenodd" d="M148.649 18.8224C148.649 18.0228 148 17.3745 147.201 17.3745H109.556C108.756 17.3745 108.108 18.0228 108.108 18.8224C108.108 19.622 108.756 20.2703 109.556 20.2703H147.201C148 20.2703 148.649 19.622 148.649 18.8224ZM148.649 11.1004C148.649 10.3007 148 9.65251 147.201 9.65251H109.556C108.756 9.65251 108.108 10.3007 108.108 11.1004C108.108 11.9 108.756 12.5483 109.556 12.5483H147.201C148 12.5483 148.649 11.9 148.649 11.1004Z" fill="#2E3E80"/>
<path d="M147.201 17.3745C148 17.3745 148.649 18.0228 148.649 18.8224C148.649 19.622 148 20.2703 147.201 20.2703H109.556C108.756 20.2703 108.108 19.622 108.108 18.8224C108.108 18.0228 108.756 17.3745 109.556 17.3745H147.201Z" fill="#F0F0F0"/>
<path d="M147.201 9.65251C148 9.65251 148.649 10.3007 148.649 11.1004C148.649 11.9 148 12.5483 147.201 12.5483H109.556C108.756 12.5483 108.108 11.9 108.108 11.1004C108.108 10.3007 108.756 9.65251 109.556 9.65251H147.201Z" fill="#F0F0F0"/>
<path d="M228.246 43.9397C228.555 42.6685 230.213 42.2824 231.052 43.2863L235.862 49.0427C236.195 49.4413 236.708 49.6518 237.235 49.6056L244.837 48.9381C246.162 48.8217 247.034 50.245 246.312 51.3466L242.169 57.6637C241.882 58.1012 241.832 58.6469 242.035 59.1231L244.961 65.9995C245.471 67.1987 244.352 68.4645 243.067 68.1415L235.697 66.2893C235.186 66.161 234.642 66.2878 234.241 66.6283L228.447 71.5457C227.437 72.4032 225.873 71.7622 225.802 70.4609L225.389 62.9991C225.361 62.4824 225.074 62.015 224.624 61.7493L218.117 57.9119C216.982 57.2428 217.135 55.5808 218.376 55.0996L225.491 52.3402C225.984 52.1491 226.351 51.7334 226.474 51.2286L228.246 43.9397Z" fill="#2E3E80"/>
</svg>
