<svg width="20" height="14" viewBox="0 0 20 14" fill="none" xmlns="http://www.w3.org/2000/svg">
<path d="M18.7988 2.11229C18.578 1.28085 17.9274 0.626027 17.1013 0.403805C15.604 0 9.60001 0 9.60001 0C9.60001 0 3.59603 0 2.09869 0.403805C1.27262 0.626063 0.62202 1.28085 0.401203 2.11229C0 3.61934 0 6.76364 0 6.76364C0 6.76364 0 9.90794 0.401203 11.415C0.62202 12.2464 1.27262 12.874 2.09869 13.0962C3.59603 13.5 9.60001 13.5 9.60001 13.5C9.60001 13.5 15.604 13.5 17.1013 13.0962C17.9274 12.874 18.578 12.2464 18.7988 11.415C19.2 9.90794 19.2 6.76364 19.2 6.76364C19.2 6.76364 19.2 3.61934 18.7988 2.11229ZM7.63636 9.61843V3.90885L12.6545 6.76371L7.63636 9.61843Z" fill="#F0F0F0"/>
</svg>
